<svg width="1306" height="421" viewBox="0 0 1306 421" fill="none" xmlns="http://www.w3.org/2000/svg">
<g clip-path="url(#clip0_2402_81)">
<path d="M152.93 276.969L155.08 248.239L159.12 149.259L159.62 127.989C159.7 124.619 159.75 121.279 159.75 117.989V104.189C170.3 104.359 178.87 104.439 185.45 104.439C189.42 104.439 195.49 104.359 203.68 104.189C211.87 104.019 217.99 103.939 222.04 103.939C232.76 103.939 240.69 104.719 245.84 106.279C250.99 107.839 255.55 110.459 259.51 114.129C263.48 117.799 266.6 122.339 268.88 127.739C271.16 133.139 272.3 139.089 272.3 145.589C272.3 156.219 269.6 165.779 264.2 174.259C258.8 182.739 251.43 189.069 242.11 193.249C232.78 197.429 222.38 199.519 210.91 199.519C204.83 199.519 198.08 198.849 190.66 197.489C189.39 191.669 187.96 186.399 186.36 181.669C192.94 182.939 199.35 183.569 205.6 183.569C211.85 183.569 217.48 182.869 223 181.479C228.53 180.089 233.27 177.769 237.24 174.519C241.21 171.269 244.28 167.199 246.48 162.309C248.67 157.419 249.77 152.229 249.77 146.739C249.77 142.439 248.97 138.449 247.36 134.779C245.76 131.109 243.54 128.199 240.71 126.049C237.88 123.899 234.68 122.439 231.09 121.679C227.5 120.919 222.29 120.539 215.46 120.539H204.83L191.54 120.789L181.67 120.659C180.66 139.139 179.95 155.929 179.53 171.039L177.77 223.059C177.18 242.809 176.89 256.009 176.89 262.679V276.979L165.11 276.729C163.67 276.729 159.62 276.809 152.95 276.979L152.93 276.969Z" fill="#00A1E5"/>
<path d="M297.05 169.119C297.81 165.409 298.61 159.919 299.46 152.659C309.59 150.049 318.38 148.249 325.85 147.279C333.32 146.309 340.6 145.819 347.68 145.819C355.27 145.819 362.38 146.519 369.01 147.909C375.63 149.299 381.14 151.559 385.53 154.679C389.92 157.799 392.83 161.389 394.26 165.439C395.69 169.489 396.41 173.839 396.41 178.479C396.41 184.299 395.97 194.069 395.09 207.779C394.21 221.489 393.54 234.169 393.08 245.819C392.62 257.469 392.39 267.849 392.39 276.959C387.83 276.789 384.11 276.709 381.24 276.709C378.53 276.709 374.69 276.789 369.71 276.959L372.4 242.399L374.32 201.509C371.36 203.789 369.15 205.389 367.67 206.319C366.19 207.249 364.52 208.109 362.67 208.909C360.81 209.709 358.76 210.469 356.53 211.189C354.29 211.909 349.94 213.149 343.48 214.919C337.02 216.689 332.44 218.039 329.74 218.969C323.91 220.829 319.31 222.679 315.93 224.539C312.55 226.399 309.72 228.419 307.44 230.619C305.16 232.819 303.56 235.009 302.63 237.199C301.53 239.899 300.98 242.729 300.98 245.679C300.98 250.239 302.33 254.199 305.03 257.579C307.73 260.959 311.13 263.299 315.22 264.599C319.31 265.909 324.23 266.559 329.97 266.559C333.51 266.559 337.23 266.309 341.11 265.819C344.99 265.329 350.18 264.049 356.68 261.999C355.5 265.259 354.15 270.289 352.63 277.059C346.47 278.239 341.45 278.979 337.57 279.269C333.69 279.559 330.02 279.709 326.56 279.709C315 279.709 305.97 278.359 299.47 275.659C292.97 272.959 288.12 268.849 284.91 263.319C281.7 257.789 280.1 251.779 280.1 245.279C280.1 241.479 280.67 237.979 281.81 234.769C282.95 231.559 284.49 228.649 286.43 226.039C288.37 223.429 291.14 220.809 294.72 218.189C298.31 215.569 302.06 213.419 305.99 211.729C309.91 210.039 314.49 208.379 319.73 206.729C324.96 205.079 333.36 202.869 344.92 200.079C348.63 199.239 351.8 198.369 354.41 197.489C357.03 196.599 359.35 195.739 361.37 194.899C363.4 194.059 365.17 193.069 366.69 191.929C368.21 190.789 369.6 189.399 370.87 187.749C372.14 186.099 373.06 184.439 373.66 182.749C374.25 181.059 374.55 179.379 374.55 177.689C374.55 173.559 373.2 170.009 370.5 167.059C367.8 164.109 364.28 162.039 359.93 160.859C355.58 159.679 350.46 159.089 344.55 159.089C339.06 159.089 333.43 159.529 327.65 160.419C321.87 161.309 316.89 162.359 312.71 163.579C308.53 164.799 303.32 166.639 297.08 169.089L297.05 169.119Z" fill="#00A1E5"/>
<path d="M518.899 257.729C518.729 259.079 518.289 261.589 517.569 265.259C516.849 268.929 516.239 272.539 515.729 276.079C509.569 277.509 503.639 278.479 497.949 278.989C492.249 279.499 487.249 279.749 482.949 279.749C473.839 279.749 465.419 278.529 457.699 276.079C449.979 273.629 443.249 269.599 437.509 263.989C431.769 258.379 427.549 251.419 424.849 243.099C422.149 234.789 420.799 226.029 420.799 216.839C420.799 204.429 422.989 192.659 427.379 181.519C431.769 170.379 438.689 161.649 448.139 155.319C457.589 148.989 470.459 145.829 486.749 145.829C498.729 145.829 510.419 147.429 521.809 150.639C522.319 157.809 522.779 163.719 523.199 168.359C515.179 165.829 508.639 164.119 503.579 163.229C498.519 162.339 493.829 161.899 489.529 161.899C482.099 161.899 475.459 163.249 469.589 165.949C463.719 168.649 458.719 172.489 454.589 177.469C450.449 182.449 447.479 188.359 445.669 195.189C443.849 202.029 442.949 208.989 442.949 216.079C442.949 225.619 444.429 233.969 447.379 241.139C450.329 248.309 455.499 253.859 462.889 257.789C470.269 261.709 478.559 263.679 487.759 263.679C496.959 263.679 507.079 261.699 518.899 257.729Z" fill="#00A1E5"/>
<path d="M545.18 276.969L547.33 242.669L549.98 176.969L551.37 121.909C551.45 113.889 551.5 107.989 551.5 104.189L563.28 104.319C565.56 104.319 569.23 104.279 574.3 104.189C573.2 117.779 571.88 144.169 570.32 183.369C568.76 222.569 567.86 253.769 567.6 276.979C562.36 276.809 558.69 276.729 556.58 276.729C554.21 276.729 550.42 276.809 545.18 276.979V276.969ZM571.26 205.389L597.09 177.829C606.12 168.219 614.65 158.529 622.67 148.749C628.49 148.829 632.71 148.879 635.32 148.879C638.61 148.879 643.12 148.839 648.86 148.749L594.11 205.519C604.33 218.869 624.1 242.679 653.42 276.969C648.2 276.799 643.98 276.719 640.78 276.719C637.58 276.719 633.24 276.799 627.77 276.969L609.15 252.259C607.38 249.979 603.45 245.169 597.37 237.819L577.73 213.879L571.27 205.389H571.26Z" fill="#00A1E5"/>
<path d="M669.93 276.969C671.37 259.759 672.37 245.789 672.93 235.069C673.48 224.349 674.25 203.739 675.22 173.239C676.2 142.729 676.69 123.679 676.69 116.089L676.56 104.189C687.95 104.359 696.72 104.439 702.88 104.439C707.86 104.439 714.54 104.359 722.93 104.189C731.32 104.019 737.76 103.939 742.23 103.939C751.51 103.939 758.57 104.399 763.42 105.329C768.27 106.259 772.59 107.739 776.39 109.759C780.19 111.779 783.39 114.339 786.01 117.419C788.63 120.499 790.73 124.319 792.34 128.879C793.94 133.439 794.75 138.459 794.75 143.939C794.75 148.239 794.22 152.399 793.17 156.409C792.11 160.419 790.49 164.179 788.3 167.679C786.1 171.179 783.57 174.199 780.71 176.729C777.84 179.259 775.1 181.219 772.48 182.619C769.86 184.009 766.4 185.509 762.1 187.109C766.4 188.209 769.84 189.259 772.42 190.269C774.99 191.279 777.57 192.629 780.14 194.319C782.71 196.009 785.12 198.099 787.35 200.589C789.59 203.079 791.4 205.739 792.79 208.559C794.18 211.389 795.26 214.569 796.02 218.119C796.78 221.669 797.16 225.379 797.16 229.259C797.16 234.659 796.36 239.809 794.75 244.699C793.15 249.589 790.83 253.959 787.79 257.799C784.75 261.639 781.16 264.849 777.03 267.419C772.9 269.999 768.8 271.939 764.75 273.239C760.7 274.549 755.36 275.499 748.74 276.089C742.11 276.679 733.28 276.979 722.22 276.979L689.94 276.849L669.94 276.979L669.93 276.969ZM694.23 261.019H727.09C736.36 261.019 743.23 260.509 747.69 259.499C752.15 258.489 756.54 256.699 760.83 254.119C765.13 251.549 768.5 247.709 770.94 242.599C773.38 237.499 774.61 232.069 774.61 226.329C774.61 221.609 773.75 217.339 772.02 213.549C770.29 209.749 767.76 206.459 764.43 203.679C761.1 200.889 757.2 198.869 752.73 197.599C748.26 196.329 741.73 195.699 733.13 195.699H696.45L694.22 261.009L694.23 261.019ZM697.2 179.879H720.09C730.38 179.879 737.38 179.649 741.09 179.179C744.8 178.719 748.83 177.619 753.17 175.889C757.51 174.159 761.1 171.629 763.92 168.299C766.74 164.969 768.81 161.339 770.12 157.409C771.43 153.489 772.08 149.539 772.08 145.579C772.08 141.359 771.38 137.649 769.99 134.439C768.6 131.229 766.51 128.489 763.72 126.209C760.93 123.929 757.66 122.289 753.91 121.269C750.15 120.259 744.44 119.749 736.76 119.749H699.42L697.19 179.879H697.2Z" fill="#00A1E5"/>
<path d="M884.94 145.829C893.8 145.829 902.24 147.099 910.26 149.629C918.28 152.159 925.22 156.169 931.08 161.659C936.94 167.149 941.4 174.059 944.43 182.419C947.47 190.769 948.99 199.589 948.99 208.879C948.99 218.919 947.36 228.539 944.12 237.739C940.87 246.939 936.31 254.739 930.45 261.159C924.58 267.569 917.41 272.279 908.93 275.269C900.45 278.259 891.36 279.759 881.65 279.759C872.62 279.759 864.1 278.409 856.08 275.709C848.06 273.009 841.12 268.789 835.26 263.049C829.39 257.309 824.94 250.289 821.91 241.969C818.87 233.659 817.35 224.939 817.35 215.829C817.35 202.079 820.14 189.689 825.7 178.679C831.27 167.669 839.45 159.439 850.26 153.999C861.06 148.559 872.62 145.839 884.94 145.839V145.829ZM884.37 161.909C875.78 161.909 867.88 164.059 860.67 168.369C853.46 172.679 848.13 179.149 844.68 187.799C841.22 196.449 839.5 205.879 839.5 216.089C839.5 225.039 840.93 233.069 843.8 240.199C846.66 247.329 851.38 253.089 857.96 257.479C864.53 261.869 872.45 264.059 881.72 264.059C888.04 264.059 894.02 262.979 899.67 260.829C905.31 258.679 910.25 255.109 914.46 250.129C918.67 245.149 921.79 239.049 923.81 231.839C925.83 224.629 926.84 217.049 926.84 209.119C926.84 201.699 925.83 194.729 923.81 188.229C921.79 181.729 918.69 176.519 914.52 172.599C910.35 168.679 905.63 165.909 900.36 164.309C895.09 162.709 889.76 161.909 884.37 161.909Z" fill="#00A1E5"/>
<path d="M1035.52 145.829C1044.38 145.829 1052.82 147.099 1060.84 149.629C1068.86 152.159 1075.8 156.169 1081.66 161.659C1087.52 167.149 1091.98 174.059 1095.01 182.419C1098.05 190.769 1099.57 199.589 1099.57 208.879C1099.57 218.919 1097.94 228.539 1094.7 237.739C1091.45 246.939 1086.89 254.739 1081.03 261.159C1075.16 267.569 1067.99 272.279 1059.51 275.269C1051.03 278.259 1041.94 279.759 1032.23 279.759C1023.2 279.759 1014.68 278.409 1006.66 275.709C998.64 273.009 991.7 268.789 985.84 263.049C979.97 257.309 975.52 250.289 972.49 241.969C969.45 233.659 967.93 224.939 967.93 215.829C967.93 202.079 970.72 189.689 976.28 178.679C981.85 167.669 990.03 159.439 1000.84 153.999C1011.64 148.559 1023.2 145.839 1035.52 145.839V145.829ZM1034.95 161.909C1026.36 161.909 1018.46 164.059 1011.25 168.369C1004.04 172.679 998.71 179.149 995.26 187.799C991.8 196.449 990.08 205.879 990.08 216.089C990.08 225.039 991.51 233.069 994.38 240.199C997.24 247.329 1001.96 253.089 1008.54 257.479C1015.11 261.869 1023.03 264.059 1032.3 264.059C1038.62 264.059 1044.6 262.979 1050.25 260.829C1055.89 258.679 1060.83 255.109 1065.04 250.129C1069.25 245.149 1072.37 239.049 1074.39 231.839C1076.41 224.629 1077.42 217.049 1077.42 209.119C1077.42 201.699 1076.41 194.729 1074.39 188.229C1072.37 181.729 1069.27 176.519 1065.1 172.599C1060.93 168.679 1056.21 165.909 1050.94 164.309C1045.67 162.709 1040.34 161.909 1034.95 161.909Z" fill="#00A1E5"/>
<path d="M1122.56 276.969L1124.71 242.669L1127.36 176.969L1128.75 121.909C1128.83 113.889 1128.88 107.989 1128.88 104.189L1140.66 104.319C1142.94 104.319 1146.61 104.279 1151.68 104.189C1150.58 117.779 1149.26 144.169 1147.7 183.369C1146.14 222.569 1145.24 253.769 1144.98 276.979C1139.74 276.809 1136.07 276.729 1133.96 276.729C1131.59 276.729 1127.79 276.809 1122.56 276.979V276.969ZM1148.64 205.389L1174.47 177.829C1183.5 168.219 1192.02 158.529 1200.05 148.749C1205.87 148.829 1210.09 148.879 1212.7 148.879C1215.99 148.879 1220.5 148.839 1226.24 148.749L1171.49 205.519C1181.71 218.869 1201.48 242.679 1230.8 276.969C1225.58 276.799 1221.36 276.719 1218.16 276.719C1214.96 276.719 1210.62 276.799 1205.15 276.969L1186.53 252.259C1184.76 249.979 1180.83 245.169 1174.75 237.819L1155.11 213.879L1148.65 205.389H1148.64Z" fill="#00A1E5"/>
<path d="M150.59 241.229C151.18 241.579 151.59 242.079 151.8 242.739C152.01 243.399 151.89 244.119 151.42 244.919C150.95 245.709 150.37 246.369 149.67 246.889C145.74 250.179 141.84 253.149 137.96 255.799C134.07 258.449 130.55 260.779 127.38 262.779C123.68 264.999 120.14 267.059 116.77 268.949C112.77 270.999 108.65 272.749 104.41 274.189C100.17 275.629 95.9101 276.599 91.6301 277.079C87.3501 277.569 83.1001 277.439 78.8701 276.699C74.6401 275.949 70.6001 274.449 66.7401 272.189C63.8601 270.509 61.0101 268.169 58.1701 265.169C55.3301 262.169 53.2301 258.479 51.8801 254.089C50.5201 249.699 50.2401 244.609 51.0401 238.819C51.8401 233.029 54.3801 226.469 58.6801 219.129C60.6501 215.759 62.9802 212.529 65.6602 209.439C68.3402 206.349 71.1801 203.549 74.1701 201.049C77.1701 198.549 80.2001 196.329 83.2601 194.389C86.3201 192.459 89.2101 190.889 91.9101 189.679C96.5801 187.619 101.26 185.869 105.97 184.439C110.67 182.999 115.17 181.979 119.46 181.359C123.75 180.749 127.66 180.609 131.19 180.939C134.72 181.279 137.67 182.149 140.05 183.539C143.81 185.749 146.27 189.119 147.41 193.649C148.55 198.179 147.55 203.119 144.42 208.469C141.69 213.129 137.67 217.259 132.36 220.869C127.05 224.479 121.21 227.619 114.86 230.289C108.5 232.959 102.1 235.129 95.6601 236.809C89.2101 238.489 83.5201 239.679 78.5901 240.389C77.7601 245.889 78.1201 250.499 79.6801 254.209C81.2301 257.919 83.4501 260.609 86.3201 262.299C90.7801 264.909 95.6101 265.809 100.81 264.999C106.01 264.189 111.25 262.529 116.51 260.019C121.77 257.509 126.81 254.599 131.61 251.289C136.41 247.979 140.67 245.079 144.39 242.599C145.68 241.759 146.81 241.189 147.79 240.889C148.76 240.599 149.69 240.709 150.59 241.229ZM88.5701 214.479C85.1401 220.329 82.5701 225.739 80.8501 230.729C83.9901 229.909 87.3201 228.829 90.8401 227.489C94.3501 226.149 97.7101 224.619 100.91 222.909C104.11 221.189 107.05 219.249 109.72 217.089C112.39 214.929 114.47 212.549 115.99 209.979C118.31 206.019 119.27 202.449 118.86 199.279C118.45 196.109 117.41 194.029 115.72 193.049C114.73 192.469 113.25 192.439 111.29 192.949C109.32 193.459 107.07 194.569 104.54 196.279C102.01 197.989 99.3701 200.339 96.6201 203.319C93.8701 206.299 91.1901 210.029 88.5801 214.489L88.5701 214.479Z" fill="#00A1E5"/>
<path d="M1271.16 138.13C1252.23 138.13 1236.83 122.73 1236.83 103.8C1236.83 84.8697 1252.23 69.4697 1271.16 69.4697C1290.09 69.4697 1305.49 84.8697 1305.49 103.8C1305.49 122.73 1290.09 138.13 1271.16 138.13ZM1271.16 72.4797C1253.89 72.4797 1239.83 86.5297 1239.83 103.81C1239.83 121.09 1253.88 135.14 1271.16 135.14C1288.44 135.14 1302.49 121.09 1302.49 103.81C1302.49 86.5297 1288.44 72.4797 1271.16 72.4797Z" fill="#00A1E5"/>
<path d="M1276.83 121.69L1269.56 108.84H1266.44V121.69H1259.83V88.7197H1272.2C1274.75 88.7197 1276.92 89.1697 1278.72 90.0697C1280.52 90.9697 1281.86 92.1797 1282.76 93.7097C1283.66 95.2397 1284.11 96.9497 1284.11 98.8297C1284.11 101 1283.48 102.96 1282.22 104.71C1280.96 106.46 1279.09 107.66 1276.6 108.32L1284.49 121.69H1276.84H1276.83ZM1266.44 103.88H1271.97C1273.76 103.88 1275.1 103.45 1275.98 102.58C1276.86 101.71 1277.3 100.51 1277.3 98.9697C1277.3 97.4297 1276.86 96.2897 1275.98 95.4497C1275.1 94.6197 1273.76 94.1997 1271.97 94.1997H1266.44V103.88Z" fill="#00A1E5"/>
<path d="M184.059 306.659V312.249H161.159V330.009H179.759V335.599H161.159V359.339H154.279V306.649H184.059V306.659Z" fill="#00A1E5"/>
<path d="M191.619 327.329C193.329 324.129 195.689 321.649 198.689 319.879C201.689 318.119 205.029 317.229 208.709 317.229C212.389 317.229 215.489 318.009 218.159 319.569C220.829 321.129 222.819 323.099 224.129 325.469V317.909H231.079V359.329H224.129V351.619C222.769 354.039 220.739 356.039 218.039 357.629C215.339 359.219 212.209 360.009 208.629 360.009C205.049 360.009 201.619 359.099 198.649 357.289C195.679 355.479 193.329 352.929 191.619 349.659C189.909 346.379 189.049 342.659 189.049 338.469C189.049 334.279 189.909 330.519 191.619 327.319V327.329ZM222.239 330.389C220.979 328.069 219.279 326.299 217.139 325.059C214.999 323.829 212.639 323.209 210.069 323.209C207.499 323.209 205.159 323.819 203.039 325.019C200.919 326.229 199.229 327.989 197.979 330.309C196.719 332.629 196.089 335.349 196.089 338.469C196.089 341.589 196.719 344.399 197.979 346.749C199.239 349.089 200.929 350.879 203.039 352.119C205.159 353.359 207.499 353.969 210.069 353.969C212.639 353.969 214.999 353.349 217.139 352.119C219.279 350.889 220.979 349.099 222.239 346.749C223.499 344.409 224.129 341.669 224.129 338.549C224.129 335.429 223.499 332.699 222.239 330.389Z" fill="#00A1E5"/>
<path d="M241.97 327.329C243.68 324.129 246.06 321.649 249.11 319.879C252.16 318.119 255.65 317.229 259.58 317.229C264.67 317.229 268.86 318.469 272.17 320.929C275.47 323.399 277.65 326.829 278.71 331.209H271.3C270.59 328.689 269.22 326.699 267.18 325.239C265.14 323.779 262.61 323.049 259.58 323.049C255.65 323.049 252.47 324.399 250.06 327.089C247.64 329.789 246.43 333.599 246.43 338.539C246.43 343.479 247.64 347.379 250.06 350.109C252.48 352.829 255.65 354.189 259.58 354.189C262.6 354.189 265.12 353.479 267.14 352.069C269.16 350.659 270.54 348.639 271.3 346.019H278.71C277.6 350.249 275.38 353.639 272.06 356.189C268.74 358.739 264.58 360.009 259.59 360.009C255.66 360.009 252.17 359.129 249.12 357.359C246.07 355.599 243.69 353.099 241.98 349.879C240.27 346.659 239.41 342.879 239.41 338.539C239.41 334.199 240.27 330.519 241.98 327.309L241.97 327.329Z" fill="#00A1E5"/>
<path d="M287.319 309.83C286.409 308.92 285.959 307.82 285.959 306.5C285.959 305.18 286.409 304.08 287.319 303.17C288.229 302.26 289.339 301.81 290.649 301.81C291.959 301.81 292.979 302.26 293.859 303.17C294.739 304.08 295.179 305.19 295.179 306.5C295.179 307.81 294.739 308.92 293.859 309.83C292.979 310.74 291.909 311.19 290.649 311.19C289.389 311.19 288.229 310.74 287.319 309.83ZM293.969 317.92V359.34H287.089V317.92H293.969Z" fill="#00A1E5"/>
<path d="M311.819 303.409V359.349H304.939V303.409H311.819Z" fill="#00A1E5"/>
<path d="M322.999 309.83C322.089 308.92 321.639 307.82 321.639 306.5C321.639 305.18 322.089 304.08 322.999 303.17C323.909 302.26 325.019 301.81 326.329 301.81C327.639 301.81 328.659 302.26 329.539 303.17C330.419 304.08 330.859 305.19 330.859 306.5C330.859 307.81 330.419 308.92 329.539 309.83C328.659 310.74 327.589 311.19 326.329 311.19C325.069 311.19 323.909 310.74 322.999 309.83ZM329.649 317.92V359.34H322.769V317.92H329.649Z" fill="#00A1E5"/>
<path d="M349 323.589V348.009C349 350.029 349.43 351.449 350.29 352.279C351.15 353.109 352.63 353.529 354.75 353.529H359.81V359.349H353.61C349.78 359.349 346.91 358.469 344.99 356.699C343.07 354.939 342.12 352.039 342.12 348.009V323.589H336.75V317.919H342.12V307.489H349V317.919H359.81V323.589H349Z" fill="#00A1E5"/>
<path d="M367.369 327.329C369.079 324.129 371.439 321.649 374.439 319.879C377.439 318.119 380.779 317.229 384.459 317.229C388.139 317.229 391.239 318.009 393.909 319.569C396.579 321.129 398.569 323.099 399.879 325.469V317.909H406.829V359.329H399.879V351.619C398.519 354.039 396.489 356.039 393.789 357.629C391.089 359.219 387.959 360.009 384.379 360.009C380.799 360.009 377.369 359.099 374.399 357.289C371.429 355.479 369.079 352.929 367.369 349.659C365.659 346.379 364.799 342.659 364.799 338.469C364.799 334.279 365.659 330.519 367.369 327.319V327.329ZM397.989 330.389C396.729 328.069 395.029 326.299 392.889 325.059C390.749 323.829 388.389 323.209 385.819 323.209C383.249 323.209 380.909 323.819 378.789 325.019C376.669 326.229 374.979 327.989 373.729 330.309C372.469 332.629 371.839 335.349 371.839 338.469C371.839 341.589 372.469 344.399 373.729 346.749C374.989 349.089 376.679 350.879 378.789 352.119C380.909 353.359 383.249 353.969 385.819 353.969C388.389 353.969 390.749 353.349 392.889 352.119C395.029 350.889 396.729 349.099 397.989 346.749C399.249 344.409 399.879 341.669 399.879 338.549C399.879 335.429 399.249 332.699 397.989 330.389Z" fill="#00A1E5"/>
<path d="M426.109 323.589V348.009C426.109 350.029 426.539 351.449 427.399 352.279C428.259 353.109 429.739 353.529 431.859 353.529H436.919V359.349H430.719C426.889 359.349 424.019 358.469 422.099 356.699C420.179 354.939 419.229 352.039 419.229 348.009V323.589H413.859V317.919H419.229V307.489H426.109V317.919H436.919V323.589H426.109Z" fill="#00A1E5"/>
<path d="M482.05 341.209H448.94C449.19 345.289 450.59 348.479 453.14 350.769C455.68 353.059 458.77 354.209 462.4 354.209C465.37 354.209 467.85 353.519 469.85 352.129C471.84 350.739 473.24 348.889 474.05 346.569H481.46C480.35 350.549 478.13 353.789 474.81 356.279C471.48 358.769 467.35 360.019 462.41 360.019C458.48 360.019 454.96 359.139 451.86 357.369C448.76 355.609 446.33 353.099 444.57 349.849C442.81 346.599 441.92 342.829 441.92 338.549C441.92 334.269 442.78 330.509 444.49 327.289C446.2 324.069 448.61 321.579 451.71 319.839C454.81 318.099 458.37 317.229 462.41 317.229C466.45 317.229 469.82 318.089 472.84 319.799C475.86 321.509 478.19 323.869 479.83 326.869C481.47 329.869 482.29 333.259 482.29 337.039C482.29 338.349 482.21 339.739 482.06 341.199L482.05 341.209ZM473.43 328.849C472.27 326.959 470.7 325.519 468.71 324.539C466.72 323.559 464.51 323.069 462.1 323.069C458.62 323.069 455.66 324.179 453.22 326.399C450.78 328.619 449.38 331.689 449.02 335.619H475.17C475.17 332.999 474.59 330.739 473.43 328.849Z" fill="#00A1E5"/>
<path d="M537.76 359.349L525.21 337.809H516.9V359.349H510.02V306.659H527.03C531.01 306.659 534.37 307.339 537.12 308.699C539.87 310.059 541.92 311.899 543.28 314.219C544.64 316.539 545.32 319.179 545.32 322.159C545.32 325.789 544.27 328.989 542.18 331.759C540.09 334.529 536.95 336.369 532.77 337.279L546 359.349H537.76ZM516.9 332.289H527.03C530.76 332.289 533.56 331.369 535.42 329.529C537.28 327.689 538.22 325.229 538.22 322.159C538.22 319.089 537.3 316.619 535.46 314.899C533.62 313.189 530.81 312.329 527.03 312.329H516.9V332.289Z" fill="#00A1E5"/>
<path d="M592.79 341.209H559.68C559.93 345.289 561.33 348.479 563.88 350.769C566.42 353.059 569.51 354.209 573.14 354.209C576.11 354.209 578.59 353.519 580.59 352.129C582.58 350.739 583.98 348.889 584.79 346.569H592.2C591.09 350.549 588.87 353.789 585.55 356.279C582.22 358.769 578.09 360.019 573.15 360.019C569.22 360.019 565.7 359.139 562.6 357.369C559.5 355.609 557.07 353.099 555.31 349.849C553.55 346.599 552.66 342.829 552.66 338.549C552.66 334.269 553.52 330.509 555.23 327.289C556.94 324.069 559.35 321.579 562.45 319.839C565.55 318.099 569.11 317.229 573.15 317.229C577.19 317.229 580.56 318.089 583.58 319.799C586.6 321.509 588.93 323.869 590.57 326.869C592.21 329.869 593.03 333.259 593.03 337.039C593.03 338.349 592.95 339.739 592.8 341.199L592.79 341.209ZM584.17 328.849C583.01 326.959 581.44 325.519 579.45 324.539C577.46 323.559 575.25 323.069 572.84 323.069C569.36 323.069 566.4 324.179 563.96 326.399C561.52 328.619 560.12 331.689 559.76 335.619H585.91C585.91 332.999 585.33 330.739 584.17 328.849Z" fill="#00A1E5"/>
<path d="M608.21 303.409V359.349H601.33V303.409H608.21Z" fill="#00A1E5"/>
<path d="M626.69 357.379C623.54 355.619 621.07 353.109 619.28 349.859C617.49 346.609 616.6 342.839 616.6 338.559C616.6 334.279 617.52 330.589 619.36 327.329C621.2 324.079 623.71 321.579 626.88 319.849C630.05 318.109 633.61 317.239 637.54 317.239C641.47 317.239 645.02 318.109 648.2 319.849C651.37 321.589 653.88 324.069 655.72 327.299C657.56 330.529 658.48 334.279 658.48 338.559C658.48 342.839 657.53 346.609 655.65 349.859C653.76 353.109 651.2 355.619 647.98 357.379C644.75 359.139 641.18 360.029 637.25 360.029C633.32 360.029 629.85 359.149 626.71 357.379H626.69ZM644.19 352.239C646.36 351.079 648.11 349.339 649.44 347.019C650.77 344.699 651.44 341.879 651.44 338.549C651.44 335.219 650.78 332.399 649.47 330.079C648.16 327.759 646.45 326.039 644.33 324.899C642.21 323.769 639.92 323.199 637.45 323.199C634.98 323.199 632.62 323.769 630.53 324.899C628.44 326.029 626.76 327.759 625.5 330.079C624.24 332.399 623.61 335.219 623.61 338.549C623.61 341.879 624.23 344.769 625.46 347.089C626.69 349.409 628.34 351.129 630.41 352.269C632.48 353.399 634.74 353.969 637.21 353.969C639.68 353.969 642 353.389 644.16 352.229L644.19 352.239Z" fill="#00A1E5"/>
<path d="M666.789 327.329C668.499 324.129 670.879 321.649 673.929 319.879C676.979 318.119 680.469 317.229 684.399 317.229C689.489 317.229 693.689 318.469 696.989 320.929C700.289 323.399 702.469 326.829 703.529 331.209H696.119C695.409 328.689 694.039 326.699 691.999 325.239C689.959 323.779 687.429 323.049 684.399 323.049C680.469 323.049 677.289 324.399 674.869 327.089C672.449 329.789 671.239 333.599 671.239 338.539C671.239 343.479 672.449 347.379 674.869 350.109C677.289 352.829 680.459 354.189 684.399 354.189C687.419 354.189 689.939 353.479 691.959 352.069C693.979 350.659 695.359 348.639 696.119 346.019H703.529C702.419 350.249 700.199 353.639 696.879 356.189C693.559 358.739 689.399 360.009 684.409 360.009C680.479 360.009 676.989 359.129 673.939 357.359C670.889 355.599 668.509 353.099 666.799 349.879C665.089 346.659 664.229 342.879 664.229 338.539C664.229 334.199 665.089 330.519 666.799 327.309L666.789 327.329Z" fill="#00A1E5"/>
<path d="M711.92 327.329C713.63 324.129 715.99 321.649 718.99 319.879C721.99 318.119 725.33 317.229 729.01 317.229C732.69 317.229 735.79 318.009 738.46 319.569C741.13 321.129 743.12 323.099 744.43 325.469V317.909H751.38V359.329H744.43V351.619C743.07 354.039 741.04 356.039 738.34 357.629C735.64 359.219 732.51 360.009 728.93 360.009C725.35 360.009 721.93 359.099 718.95 357.289C715.97 355.479 713.63 352.929 711.92 349.659C710.21 346.379 709.35 342.659 709.35 338.469C709.35 334.279 710.21 330.519 711.92 327.319V327.329ZM742.54 330.389C741.28 328.069 739.58 326.299 737.44 325.059C735.3 323.829 732.94 323.209 730.37 323.209C727.8 323.209 725.46 323.819 723.34 325.019C721.22 326.229 719.53 327.989 718.28 330.309C717.02 332.629 716.39 335.349 716.39 338.469C716.39 341.589 717.02 344.399 718.28 346.749C719.54 349.089 721.23 350.879 723.34 352.119C725.46 353.359 727.8 353.969 730.37 353.969C732.94 353.969 735.29 353.349 737.44 352.119C739.58 350.889 741.28 349.099 742.54 346.749C743.8 344.409 744.43 341.669 744.43 338.549C744.43 335.429 743.8 332.699 742.54 330.389Z" fill="#00A1E5"/>
<path d="M770.66 323.589V348.009C770.66 350.029 771.09 351.449 771.95 352.279C772.81 353.109 774.29 353.529 776.41 353.529H781.47V359.349H775.27C771.44 359.349 768.57 358.469 766.65 356.699C764.73 354.939 763.78 352.039 763.78 348.009V323.589H758.41V317.919H763.78V307.489H770.66V317.919H781.47V323.589H770.66Z" fill="#00A1E5"/>
<path d="M789.249 309.83C788.339 308.92 787.889 307.82 787.889 306.5C787.889 305.18 788.339 304.08 789.249 303.17C790.159 302.26 791.259 301.81 792.579 301.81C793.899 301.81 794.909 302.26 795.789 303.17C796.669 304.08 797.109 305.19 797.109 306.5C797.109 307.81 796.669 308.92 795.789 309.83C794.909 310.74 793.839 311.19 792.579 311.19C791.319 311.19 790.159 310.74 789.249 309.83ZM795.899 317.92V359.34H789.019V317.92H795.899Z" fill="#00A1E5"/>
<path d="M814.389 357.379C811.239 355.619 808.769 353.109 806.979 349.859C805.189 346.609 804.299 342.839 804.299 338.559C804.299 334.279 805.219 330.589 807.059 327.329C808.899 324.079 811.409 321.579 814.579 319.849C817.749 318.109 821.309 317.239 825.239 317.239C829.169 317.239 832.719 318.109 835.899 319.849C839.069 321.589 841.579 324.069 843.419 327.299C845.259 330.529 846.179 334.279 846.179 338.559C846.179 342.839 845.239 346.609 843.349 349.859C841.459 353.109 838.899 355.619 835.679 357.379C832.449 359.139 828.879 360.029 824.949 360.029C821.019 360.029 817.549 359.149 814.399 357.379H814.389ZM831.889 352.239C834.059 351.079 835.809 349.339 837.139 347.019C838.469 344.699 839.139 341.879 839.139 338.549C839.139 335.219 838.479 332.399 837.179 330.079C835.869 327.759 834.159 326.039 832.039 324.899C829.919 323.759 827.629 323.199 825.159 323.199C822.689 323.199 820.329 323.769 818.239 324.899C816.149 326.029 814.469 327.759 813.209 330.079C811.949 332.399 811.319 335.219 811.319 338.549C811.319 341.879 811.939 344.769 813.169 347.089C814.399 349.409 816.049 351.129 818.119 352.269C820.189 353.399 822.449 353.969 824.919 353.969C827.389 353.969 829.709 353.389 831.869 352.229L831.889 352.239Z" fill="#00A1E5"/>
<path d="M886.918 321.74C890.038 324.79 891.608 329.19 891.608 334.93V359.35H884.808V335.92C884.808 331.79 883.778 328.63 881.708 326.43C879.638 324.24 876.818 323.14 873.238 323.14C869.658 323.14 866.728 324.27 864.578 326.54C862.438 328.81 861.368 332.11 861.368 336.44V359.34H854.488V317.92H861.368V323.82C862.728 321.7 864.578 320.07 866.928 318.91C869.268 317.75 871.848 317.17 874.678 317.17C879.718 317.17 883.798 318.69 886.928 321.74H886.918Z" fill="#00A1E5"/>
<path d="M953.179 334.549C954.769 335.809 956.029 337.369 956.959 339.239C957.889 341.099 958.359 343.089 958.359 345.209C958.359 347.879 957.679 350.289 956.319 352.429C954.959 354.569 952.979 356.259 950.389 357.499C947.789 358.739 944.729 359.349 941.209 359.349H921.559V306.659H940.459C944.039 306.659 947.089 307.249 949.609 308.439C952.129 309.619 954.019 311.229 955.279 313.239C956.539 315.259 957.169 317.519 957.169 320.039C957.169 323.159 956.329 325.749 954.639 327.789C952.949 329.829 950.719 331.309 947.949 332.209C949.859 332.509 951.619 333.289 953.199 334.549H953.179ZM928.419 329.409H939.989C943.209 329.409 945.709 328.649 947.469 327.139C949.229 325.629 950.119 323.539 950.119 320.869C950.119 318.199 949.239 316.109 947.469 314.599C945.709 313.089 943.159 312.329 939.839 312.329H928.419V329.409ZM948.599 351.259C950.519 349.649 951.469 347.409 951.469 344.529C951.469 341.649 950.459 339.299 948.449 337.609C946.429 335.919 943.739 335.079 940.359 335.079H928.419V353.679H940.589C944.019 353.679 946.689 352.879 948.599 351.259Z" fill="#00A1E5"/>
<path d="M1003.86 317.92V359.34H996.98V353.22C995.67 355.34 993.84 356.99 991.5 358.17C989.16 359.35 986.57 359.95 983.75 359.95C980.52 359.95 977.63 359.28 975.06 357.95C972.49 356.62 970.46 354.61 968.98 351.94C967.49 349.27 966.75 346.02 966.75 342.19V317.92H973.55V341.28C973.55 345.36 974.58 348.5 976.65 350.69C978.72 352.88 981.54 353.98 985.12 353.98C988.7 353.98 991.7 352.85 993.81 350.58C995.93 348.31 996.98 345.01 996.98 340.68V317.93H1003.86V317.92Z" fill="#00A1E5"/>
<path d="M1020.87 358.399C1018.35 357.319 1016.36 355.809 1014.9 353.859C1013.44 351.919 1012.63 349.689 1012.48 347.169H1019.59C1019.79 349.239 1020.76 350.919 1022.5 352.239C1024.24 353.549 1026.52 354.199 1029.34 354.199C1031.96 354.199 1034.03 353.619 1035.54 352.459C1037.05 351.299 1037.81 349.839 1037.81 348.079C1037.81 346.319 1037 344.919 1035.39 344.039C1033.78 343.159 1031.28 342.289 1027.91 341.429C1024.84 340.629 1022.33 339.809 1020.39 338.969C1018.45 338.139 1016.79 336.899 1015.4 335.269C1014.01 333.629 1013.32 331.479 1013.32 328.809C1013.32 326.689 1013.95 324.749 1015.21 322.989C1016.47 321.229 1018.26 319.829 1020.58 318.789C1022.9 317.759 1025.54 317.239 1028.52 317.239C1033.1 317.239 1036.81 318.399 1039.63 320.719C1042.45 323.039 1043.96 326.209 1044.17 330.239H1037.29C1037.14 328.069 1036.27 326.339 1034.68 325.019C1033.09 323.709 1030.96 323.049 1028.29 323.049C1025.82 323.049 1023.86 323.579 1022.39 324.639C1020.93 325.699 1020.2 327.089 1020.2 328.799C1020.2 330.159 1020.64 331.279 1021.52 332.159C1022.4 333.039 1023.51 333.749 1024.85 334.279C1026.18 334.809 1028.04 335.399 1030.41 336.059C1033.38 336.869 1035.8 337.659 1037.67 338.439C1039.53 339.219 1041.13 340.389 1042.47 341.949C1043.8 343.509 1044.5 345.549 1044.55 348.069C1044.55 350.339 1043.92 352.379 1042.66 354.189C1041.4 355.999 1039.62 357.429 1037.33 358.459C1035.04 359.489 1032.4 360.009 1029.43 360.009C1026.26 360.009 1023.41 359.469 1020.89 358.379L1020.87 358.399Z" fill="#00A1E5"/>
<path d="M1053.68 309.83C1052.77 308.92 1052.32 307.82 1052.32 306.5C1052.32 305.18 1052.77 304.08 1053.68 303.17C1054.59 302.26 1055.69 301.81 1057.01 301.81C1058.33 301.81 1059.34 302.26 1060.22 303.17C1061.1 304.08 1061.54 305.19 1061.54 306.5C1061.54 307.81 1061.1 308.92 1060.22 309.83C1059.34 310.74 1058.27 311.19 1057.01 311.19C1055.75 311.19 1054.59 310.74 1053.68 309.83ZM1060.33 317.92V359.34H1053.45V317.92H1060.33Z" fill="#00A1E5"/>
<path d="M1103.72 321.74C1106.84 324.79 1108.41 329.19 1108.41 334.93V359.35H1101.61V335.92C1101.61 331.79 1100.58 328.63 1098.51 326.43C1096.44 324.24 1093.62 323.14 1090.04 323.14C1086.46 323.14 1083.53 324.27 1081.38 326.54C1079.24 328.81 1078.17 332.11 1078.17 336.44V359.34H1071.29V317.92H1078.17V323.82C1079.53 321.7 1081.38 320.07 1083.73 318.91C1086.07 317.75 1088.65 317.17 1091.48 317.17C1096.52 317.17 1100.6 318.69 1103.73 321.74H1103.72Z" fill="#00A1E5"/>
<path d="M1156.48 341.209H1123.37C1123.62 345.289 1125.02 348.479 1127.57 350.769C1130.11 353.059 1133.2 354.209 1136.83 354.209C1139.8 354.209 1142.28 353.519 1144.28 352.129C1146.27 350.739 1147.67 348.889 1148.48 346.569H1155.89C1154.78 350.549 1152.56 353.789 1149.24 356.279C1145.92 358.769 1141.78 360.019 1136.84 360.019C1132.91 360.019 1129.39 359.139 1126.3 357.369C1123.2 355.609 1120.77 353.099 1119.01 349.849C1117.25 346.599 1116.36 342.829 1116.36 338.549C1116.36 334.269 1117.22 330.509 1118.93 327.289C1120.64 324.069 1123.05 321.579 1126.15 319.839C1129.25 318.099 1132.81 317.229 1136.85 317.229C1140.89 317.229 1144.26 318.089 1147.28 319.799C1150.3 321.509 1152.63 323.869 1154.27 326.869C1155.91 329.869 1156.73 333.259 1156.73 337.039C1156.73 338.349 1156.65 339.739 1156.5 341.199L1156.48 341.209ZM1147.86 328.849C1146.7 326.959 1145.13 325.519 1143.14 324.539C1141.15 323.559 1138.94 323.069 1136.53 323.069C1133.05 323.069 1130.09 324.179 1127.65 326.399C1125.2 328.619 1123.81 331.689 1123.45 335.619H1149.61C1149.61 332.999 1149.03 330.739 1147.87 328.849H1147.86Z" fill="#00A1E5"/>
<path d="M1171.15 358.399C1168.63 357.319 1166.64 355.809 1165.18 353.859C1163.72 351.919 1162.91 349.689 1162.76 347.169H1169.87C1170.07 349.239 1171.04 350.919 1172.78 352.239C1174.52 353.549 1176.8 354.199 1179.62 354.199C1182.24 354.199 1184.31 353.619 1185.82 352.459C1187.33 351.299 1188.09 349.839 1188.09 348.079C1188.09 346.319 1187.28 344.919 1185.67 344.039C1184.06 343.159 1181.56 342.289 1178.19 341.429C1175.12 340.629 1172.61 339.809 1170.67 338.969C1168.73 338.139 1167.07 336.899 1165.68 335.269C1164.29 333.629 1163.6 331.479 1163.6 328.809C1163.6 326.689 1164.23 324.749 1165.49 322.989C1166.75 321.229 1168.54 319.829 1170.86 318.789C1173.18 317.759 1175.82 317.239 1178.8 317.239C1183.38 317.239 1187.09 318.399 1189.91 320.719C1192.73 323.039 1194.24 326.209 1194.45 330.239H1187.57C1187.42 328.069 1186.55 326.339 1184.96 325.019C1183.37 323.709 1181.24 323.049 1178.57 323.049C1176.1 323.049 1174.14 323.579 1172.67 324.639C1171.21 325.699 1170.48 327.089 1170.48 328.799C1170.48 330.159 1170.92 331.279 1171.8 332.159C1172.68 333.039 1173.79 333.749 1175.13 334.279C1176.46 334.809 1178.32 335.399 1180.69 336.059C1183.66 336.869 1186.08 337.659 1187.95 338.439C1189.81 339.219 1191.41 340.389 1192.75 341.949C1194.08 343.509 1194.78 345.549 1194.83 348.069C1194.83 350.339 1194.2 352.379 1192.94 354.189C1191.68 355.999 1189.9 357.429 1187.61 358.459C1185.32 359.489 1182.68 360.009 1179.71 360.009C1176.54 360.009 1173.69 359.469 1171.17 358.379L1171.15 358.399Z" fill="#00A1E5"/>
<path d="M1209.85 358.399C1207.33 357.319 1205.34 355.809 1203.88 353.859C1202.42 351.919 1201.61 349.689 1201.46 347.169H1208.57C1208.77 349.239 1209.74 350.919 1211.48 352.239C1213.22 353.549 1215.5 354.199 1218.32 354.199C1220.94 354.199 1223.01 353.619 1224.52 352.459C1226.03 351.299 1226.79 349.839 1226.79 348.079C1226.79 346.319 1225.98 344.919 1224.37 344.039C1222.76 343.159 1220.26 342.289 1216.89 341.429C1213.82 340.629 1211.31 339.809 1209.37 338.969C1207.43 338.139 1205.77 336.899 1204.38 335.269C1202.99 333.629 1202.3 331.479 1202.3 328.809C1202.3 326.689 1202.93 324.749 1204.19 322.989C1205.45 321.229 1207.24 319.829 1209.56 318.789C1211.88 317.759 1214.52 317.239 1217.5 317.239C1222.08 317.239 1225.79 318.399 1228.61 320.719C1231.43 323.039 1232.94 326.209 1233.15 330.239H1226.27C1226.12 328.069 1225.25 326.339 1223.66 325.019C1222.07 323.709 1219.94 323.049 1217.27 323.049C1214.8 323.049 1212.84 323.579 1211.37 324.639C1209.91 325.699 1209.18 327.089 1209.18 328.799C1209.18 330.159 1209.62 331.279 1210.5 332.159C1211.38 333.039 1212.49 333.749 1213.83 334.279C1215.16 334.809 1217.02 335.399 1219.39 336.059C1222.36 336.869 1224.78 337.659 1226.65 338.439C1228.51 339.219 1230.11 340.389 1231.45 341.949C1232.78 343.509 1233.48 345.549 1233.53 348.069C1233.53 350.339 1232.9 352.379 1231.64 354.189C1230.38 355.999 1228.6 357.429 1226.31 358.459C1224.02 359.489 1221.38 360.009 1218.41 360.009C1215.24 360.009 1212.39 359.469 1209.87 358.379L1209.85 358.399Z" fill="#00A1E5"/>
</g>
<defs>
<clipPath id="clip0_2402_81">
<rect width="1305.48" height="420.36" fill="white"/>
</clipPath>
</defs>
</svg>
