<?xml version="1.0" encoding="UTF-8"?>
<svg id="Layer_1" data-name="Layer 1" xmlns="http://www.w3.org/2000/svg" viewBox="0 0 1305.48 420.36">
  <defs>
    <style>
      .cls-1 {
        fill: #fff;
      }
    </style>
  </defs>
  <g id="shape">
    <g>
      <path class="cls-1" d="M152.93,276.97l2.15-28.73,4.04-98.98,.5-21.27c.08-3.37,.13-6.71,.13-10v-13.8c10.55,.17,19.12,.25,25.7,.25,3.97,0,10.04-.08,18.23-.25,8.19-.17,14.31-.25,18.36-.25,10.72,0,18.65,.78,23.8,2.34,5.15,1.56,9.71,4.18,13.67,7.85,3.97,3.67,7.09,8.21,9.37,13.61,2.28,5.4,3.42,11.35,3.42,17.85,0,10.63-2.7,20.19-8.1,28.67-5.4,8.48-12.77,14.81-22.09,18.99-9.33,4.18-19.73,6.27-31.2,6.27-6.08,0-12.83-.67-20.25-2.03-1.27-5.82-2.7-11.09-4.3-15.82,6.58,1.27,12.99,1.9,19.24,1.9s11.88-.7,17.4-2.09c5.53-1.39,10.27-3.71,14.24-6.96,3.97-3.25,7.04-7.32,9.24-12.21,2.19-4.89,3.29-10.08,3.29-15.57,0-4.3-.8-8.29-2.41-11.96-1.6-3.67-3.82-6.58-6.65-8.73-2.83-2.15-6.03-3.61-9.62-4.37-3.59-.76-8.8-1.14-15.63-1.14h-10.63l-13.29,.25-9.87-.13c-1.01,18.48-1.72,35.27-2.14,50.38l-1.76,52.02c-.59,19.75-.88,32.95-.88,39.62v14.3l-11.78-.25c-1.44,0-5.49,.08-12.16,.25Z"/>
      <path class="cls-1" d="M297.05,169.12c.76-3.71,1.56-9.2,2.41-16.46,10.13-2.61,18.92-4.41,26.39-5.38,7.47-.97,14.75-1.46,21.83-1.46,7.59,0,14.7,.7,21.33,2.09,6.62,1.39,12.13,3.65,16.52,6.77,4.39,3.12,7.3,6.71,8.73,10.76,1.43,4.05,2.15,8.4,2.15,13.04,0,5.82-.44,15.59-1.32,29.3-.88,13.71-1.55,26.39-2.01,38.04-.46,11.65-.69,22.03-.69,31.14-4.56-.17-8.28-.25-11.15-.25-2.71,0-6.55,.08-11.53,.25l2.69-34.56,1.92-40.89c-2.96,2.28-5.17,3.88-6.65,4.81-1.48,.93-3.15,1.79-5,2.59-1.86,.8-3.91,1.56-6.14,2.28-2.24,.72-6.59,1.96-13.05,3.73-6.46,1.77-11.04,3.12-13.74,4.05-5.83,1.86-10.43,3.71-13.81,5.57-3.38,1.86-6.21,3.88-8.49,6.08-2.28,2.2-3.88,4.39-4.81,6.58-1.1,2.7-1.65,5.53-1.65,8.48,0,4.56,1.35,8.52,4.05,11.9,2.7,3.38,6.1,5.72,10.19,7.02,4.09,1.31,9.01,1.96,14.75,1.96,3.54,0,7.26-.25,11.14-.74,3.88-.49,9.07-1.77,15.57-3.82-1.18,3.26-2.53,8.29-4.05,15.06-6.16,1.18-11.18,1.92-15.06,2.21-3.88,.29-7.55,.44-11.01,.44-11.56,0-20.59-1.35-27.09-4.05-6.5-2.7-11.35-6.81-14.56-12.34-3.21-5.53-4.81-11.54-4.81-18.04,0-3.8,.57-7.3,1.71-10.51,1.14-3.21,2.68-6.12,4.62-8.73,1.94-2.61,4.71-5.23,8.29-7.85,3.59-2.62,7.34-4.77,11.27-6.46,3.92-1.69,8.5-3.35,13.74-5,5.23-1.65,13.63-3.86,25.19-6.65,3.71-.84,6.88-1.71,9.49-2.59,2.62-.89,4.94-1.75,6.96-2.59,2.03-.84,3.8-1.83,5.32-2.97,1.52-1.14,2.91-2.53,4.18-4.18,1.27-1.65,2.19-3.31,2.79-5,.59-1.69,.89-3.37,.89-5.06,0-4.13-1.35-7.68-4.05-10.63-2.7-2.95-6.22-5.02-10.57-6.2-4.35-1.18-9.47-1.77-15.38-1.77-5.49,0-11.12,.44-16.9,1.33-5.78,.89-10.76,1.94-14.94,3.16-4.18,1.22-9.39,3.06-15.63,5.51Z"/>
      <path class="cls-1" d="M518.9,257.73c-.17,1.35-.61,3.86-1.33,7.53-.72,3.67-1.33,7.28-1.84,10.82-6.16,1.43-12.09,2.4-17.78,2.91-5.7,.51-10.7,.76-15,.76-9.11,0-17.53-1.22-25.25-3.67-7.72-2.45-14.45-6.48-20.19-12.09-5.74-5.61-9.96-12.57-12.66-20.89-2.7-8.31-4.05-17.07-4.05-26.26,0-12.41,2.19-24.18,6.58-35.32,4.39-11.14,11.31-19.87,20.76-26.2,9.45-6.33,22.32-9.49,38.61-9.49,11.98,0,23.67,1.6,35.06,4.81,.51,7.17,.97,13.08,1.39,17.72-8.02-2.53-14.56-4.24-19.62-5.13-5.06-.89-9.75-1.33-14.05-1.33-7.43,0-14.07,1.35-19.94,4.05-5.87,2.7-10.87,6.54-15,11.52-4.14,4.98-7.11,10.89-8.92,17.72-1.82,6.84-2.72,13.8-2.72,20.89,0,9.54,1.48,17.89,4.43,25.06,2.95,7.17,8.12,12.72,15.51,16.65,7.38,3.92,15.67,5.89,24.87,5.89s19.32-1.98,31.14-5.95Z"/>
      <path class="cls-1" d="M545.18,276.97l2.15-34.3,2.65-65.7,1.39-55.06c.08-8.02,.13-13.92,.13-17.72l11.78,.13c2.28,0,5.95-.04,11.02-.13-1.1,13.59-2.42,39.98-3.98,79.18-1.56,39.2-2.46,70.4-2.72,93.61-5.24-.17-8.91-.25-11.02-.25-2.37,0-6.16,.08-11.4,.25Zm26.08-71.58l25.83-27.56c9.03-9.61,17.56-19.3,25.58-29.08,5.82,.08,10.04,.13,12.65,.13,3.29,0,7.8-.04,13.54-.13l-54.75,56.77c10.22,13.35,29.99,37.16,59.31,71.45-5.22-.17-9.44-.25-12.64-.25s-7.54,.08-13.01,.25l-18.62-24.71c-1.77-2.28-5.7-7.09-11.78-14.44l-19.64-23.94-6.46-8.49Z"/>
      <path class="cls-1" d="M669.93,276.97c1.44-17.21,2.44-31.18,3-41.9,.55-10.72,1.32-31.33,2.29-61.83,.98-30.51,1.47-49.56,1.47-57.15l-.13-11.9c11.39,.17,20.16,.25,26.32,.25,4.98,0,11.66-.08,20.05-.25,8.39-.17,14.83-.25,19.3-.25,9.28,0,16.34,.46,21.19,1.39,4.85,.93,9.17,2.41,12.97,4.43,3.8,2.02,7,4.58,9.62,7.66,2.62,3.08,4.72,6.9,6.33,11.46,1.6,4.56,2.41,9.58,2.41,15.06,0,4.3-.53,8.46-1.58,12.47-1.06,4.01-2.68,7.77-4.87,11.27-2.2,3.5-4.73,6.52-7.59,9.05-2.87,2.53-5.61,4.49-8.23,5.89-2.62,1.39-6.08,2.89-10.38,4.49,4.3,1.1,7.74,2.15,10.32,3.16,2.57,1.01,5.15,2.36,7.72,4.05,2.57,1.69,4.98,3.78,7.21,6.27,2.24,2.49,4.05,5.15,5.44,7.97,1.39,2.83,2.47,6.01,3.23,9.56s1.14,7.26,1.14,11.14c0,5.4-.8,10.55-2.41,15.44-1.6,4.89-3.92,9.26-6.96,13.1-3.04,3.84-6.63,7.05-10.76,9.62-4.13,2.58-8.23,4.52-12.28,5.82-4.05,1.31-9.39,2.26-16.01,2.85-6.63,.59-15.46,.89-26.52,.89l-32.28-.13-20,.13Zm24.3-15.95h32.86c9.27,0,16.14-.51,20.6-1.52s8.85-2.8,13.14-5.38c4.3-2.57,7.67-6.41,10.11-11.52,2.44-5.1,3.67-10.53,3.67-16.27,0-4.72-.86-8.99-2.59-12.78-1.73-3.8-4.26-7.09-7.59-9.87-3.33-2.79-7.23-4.81-11.7-6.08s-11-1.9-19.6-1.9h-36.68l-2.23,65.31Zm2.97-81.14h22.89c10.29,0,17.29-.23,21-.7,3.71-.46,7.74-1.56,12.08-3.29,4.34-1.73,7.93-4.26,10.75-7.59,2.82-3.33,4.89-6.96,6.2-10.89,1.31-3.92,1.96-7.87,1.96-11.83,0-4.22-.7-7.93-2.09-11.14-1.39-3.21-3.48-5.95-6.27-8.23-2.79-2.28-6.06-3.92-9.81-4.94-3.76-1.01-9.47-1.52-17.15-1.52h-37.34l-2.23,60.13Z"/>
      <path class="cls-1" d="M884.94,145.83c8.86,0,17.3,1.27,25.32,3.8,8.02,2.53,14.96,6.54,20.82,12.03,5.86,5.49,10.32,12.4,13.35,20.76,3.04,8.35,4.56,17.17,4.56,26.46,0,10.04-1.63,19.66-4.87,28.86-3.25,9.2-7.81,17-13.67,23.42-5.87,6.41-13.04,11.12-21.52,14.11-8.48,2.99-17.57,4.49-27.28,4.49-9.03,0-17.55-1.35-25.57-4.05-8.02-2.7-14.96-6.92-20.82-12.66-5.87-5.74-10.32-12.76-13.35-21.08-3.04-8.31-4.56-17.03-4.56-26.14,0-13.75,2.79-26.14,8.35-37.15,5.57-11.01,13.75-19.24,24.56-24.68,10.8-5.44,22.36-8.16,34.68-8.16Zm-.57,16.08c-8.59,0-16.49,2.15-23.7,6.46s-12.54,10.78-15.99,19.43c-3.46,8.65-5.18,18.08-5.18,28.29,0,8.95,1.43,16.98,4.3,24.11,2.86,7.13,7.58,12.89,14.16,17.28,6.57,4.39,14.49,6.58,23.76,6.58,6.32,0,12.3-1.08,17.95-3.23,5.64-2.15,10.58-5.72,14.79-10.7,4.21-4.98,7.33-11.08,9.35-18.29,2.02-7.21,3.03-14.79,3.03-22.72,0-7.42-1.01-14.39-3.03-20.89-2.02-6.5-5.12-11.71-9.29-15.63-4.17-3.92-8.89-6.69-14.16-8.29-5.27-1.6-10.6-2.4-15.99-2.4Z"/>
      <path class="cls-1" d="M1035.52,145.83c8.86,0,17.3,1.27,25.32,3.8,8.02,2.53,14.96,6.54,20.82,12.03,5.86,5.49,10.32,12.4,13.35,20.76,3.04,8.35,4.56,17.17,4.56,26.46,0,10.04-1.63,19.66-4.87,28.86-3.25,9.2-7.81,17-13.67,23.42-5.87,6.41-13.04,11.12-21.52,14.11-8.48,2.99-17.57,4.49-27.28,4.49-9.03,0-17.55-1.35-25.57-4.05-8.02-2.7-14.96-6.92-20.82-12.66-5.87-5.74-10.32-12.76-13.35-21.08-3.04-8.31-4.56-17.03-4.56-26.14,0-13.75,2.79-26.14,8.35-37.15,5.57-11.01,13.75-19.24,24.56-24.68,10.8-5.44,22.36-8.16,34.68-8.16Zm-.57,16.08c-8.59,0-16.49,2.15-23.7,6.46s-12.54,10.78-15.99,19.43c-3.46,8.65-5.18,18.08-5.18,28.29,0,8.95,1.43,16.98,4.3,24.11,2.86,7.13,7.58,12.89,14.16,17.28,6.57,4.39,14.49,6.58,23.76,6.58,6.32,0,12.3-1.08,17.95-3.23,5.64-2.15,10.58-5.72,14.79-10.7,4.21-4.98,7.33-11.08,9.35-18.29,2.02-7.21,3.03-14.79,3.03-22.72,0-7.42-1.01-14.39-3.03-20.89-2.02-6.5-5.12-11.71-9.29-15.63-4.17-3.92-8.89-6.69-14.16-8.29-5.27-1.6-10.6-2.4-15.99-2.4Z"/>
      <path class="cls-1" d="M1122.56,276.97l2.15-34.3,2.65-65.7,1.39-55.06c.08-8.02,.13-13.92,.13-17.72l11.78,.13c2.28,0,5.95-.04,11.02-.13-1.1,13.59-2.42,39.98-3.98,79.18-1.56,39.2-2.46,70.4-2.72,93.61-5.24-.17-8.91-.25-11.02-.25-2.37,0-6.17,.08-11.4,.25Zm26.08-71.58l25.83-27.56c9.03-9.61,17.55-19.3,25.58-29.08,5.82,.08,10.04,.13,12.65,.13,3.29,0,7.8-.04,13.54-.13l-54.75,56.77c10.22,13.35,29.99,37.16,59.31,71.45-5.22-.17-9.44-.25-12.64-.25s-7.54,.08-13.01,.25l-18.62-24.71c-1.77-2.28-5.7-7.09-11.78-14.44l-19.64-23.94-6.46-8.49Z"/>
    </g>
    <path class="cls-1" d="M150.59,241.23c.59,.35,1,.85,1.21,1.51,.21,.66,.09,1.38-.38,2.18-.47,.79-1.05,1.45-1.75,1.97-3.93,3.29-7.83,6.26-11.71,8.91-3.89,2.65-7.41,4.98-10.58,6.98-3.7,2.22-7.24,4.28-10.61,6.17-4,2.05-8.12,3.8-12.36,5.24-4.24,1.44-8.5,2.41-12.78,2.89-4.28,.49-8.53,.36-12.76-.38-4.23-.75-8.27-2.25-12.13-4.51-2.88-1.68-5.73-4.02-8.57-7.02-2.84-3-4.94-6.69-6.29-11.08-1.36-4.39-1.64-9.48-.84-15.27,.8-5.79,3.34-12.35,7.64-19.69,1.97-3.37,4.3-6.6,6.98-9.69,2.68-3.09,5.52-5.89,8.51-8.39,3-2.5,6.03-4.72,9.09-6.66,3.06-1.93,5.95-3.5,8.65-4.71,4.67-2.06,9.35-3.81,14.06-5.24,4.7-1.44,9.2-2.46,13.49-3.08,4.29-.61,8.2-.75,11.73-.42,3.53,.34,6.48,1.21,8.86,2.6,3.76,2.21,6.22,5.58,7.36,10.11,1.14,4.53,.14,9.47-2.99,14.82-2.73,4.66-6.75,8.79-12.06,12.4-5.31,3.61-11.15,6.75-17.5,9.42-6.36,2.67-12.76,4.84-19.2,6.52-6.45,1.68-12.14,2.87-17.07,3.58-.83,5.5-.47,10.11,1.09,13.82,1.55,3.71,3.77,6.4,6.64,8.09,4.46,2.61,9.29,3.51,14.49,2.7,5.2-.81,10.44-2.47,15.7-4.98,5.26-2.51,10.3-5.42,15.1-8.73,4.8-3.31,9.06-6.21,12.78-8.69,1.29-.84,2.42-1.41,3.4-1.71,.97-.29,1.9-.18,2.8,.34Zm-62.02-26.75c-3.43,5.85-6,11.26-7.72,16.25,3.14-.82,6.47-1.9,9.99-3.24,3.51-1.34,6.87-2.87,10.07-4.58,3.2-1.72,6.14-3.66,8.81-5.82,2.67-2.16,4.75-4.54,6.27-7.11,2.32-3.96,3.28-7.53,2.87-10.7-.41-3.17-1.45-5.25-3.14-6.23-.99-.58-2.47-.61-4.43-.1-1.97,.51-4.22,1.62-6.75,3.33-2.53,1.71-5.17,4.06-7.92,7.04-2.75,2.98-5.43,6.71-8.04,11.17Z"/>
    <path class="cls-1" d="M1271.16,138.13c-18.93,0-34.33-15.4-34.33-34.33s15.4-34.33,34.33-34.33,34.33,15.4,34.33,34.33-15.4,34.33-34.33,34.33Zm0-65.65c-17.27,0-31.33,14.05-31.33,31.33s14.05,31.33,31.33,31.33,31.33-14.05,31.33-31.33-14.05-31.33-31.33-31.33Z"/>
    <path class="cls-1" d="M1276.83,121.69l-7.27-12.85h-3.12v12.85h-6.61v-32.97h12.37c2.55,0,4.72,.45,6.52,1.35s3.14,2.11,4.04,3.64c.9,1.53,1.35,3.24,1.35,5.12,0,2.17-.63,4.13-1.89,5.88-1.26,1.75-3.13,2.95-5.62,3.61l7.89,13.37h-7.65Zm-10.39-17.81h5.53c1.79,0,3.13-.43,4.01-1.3,.88-.87,1.32-2.07,1.32-3.61s-.44-2.68-1.32-3.52c-.88-.83-2.22-1.25-4.01-1.25h-5.53v9.68Z"/>
    <g>
      <path class="cls-1" d="M184.06,306.66v5.59h-22.9v17.76h18.6v5.59h-18.6v23.74h-6.88v-52.69h29.78Z"/>
      <path class="cls-1" d="M191.62,327.33c1.71-3.2,4.07-5.68,7.07-7.45,3-1.76,6.34-2.65,10.02-2.65s6.78,.78,9.45,2.34c2.67,1.56,4.66,3.53,5.97,5.9v-7.56h6.95v41.42h-6.95v-7.71c-1.36,2.42-3.39,4.42-6.09,6.01-2.7,1.59-5.83,2.38-9.41,2.38s-7.01-.91-9.98-2.72c-2.97-1.81-5.32-4.36-7.03-7.63-1.71-3.28-2.57-7-2.57-11.19s.86-7.95,2.57-11.15Zm30.62,3.06c-1.26-2.32-2.96-4.09-5.1-5.33-2.14-1.23-4.5-1.85-7.07-1.85s-4.91,.61-7.03,1.81c-2.12,1.21-3.81,2.97-5.06,5.29-1.26,2.32-1.89,5.04-1.89,8.16s.63,5.93,1.89,8.28c1.26,2.34,2.95,4.13,5.06,5.37,2.12,1.24,4.46,1.85,7.03,1.85s4.93-.62,7.07-1.85c2.14-1.23,3.84-3.02,5.1-5.37,1.26-2.34,1.89-5.08,1.89-8.2s-.63-5.85-1.89-8.16Z"/>
      <path class="cls-1" d="M241.97,327.33c1.71-3.2,4.09-5.68,7.14-7.45,3.05-1.76,6.54-2.65,10.47-2.65,5.09,0,9.28,1.24,12.59,3.7,3.3,2.47,5.48,5.9,6.54,10.28h-7.41c-.71-2.52-2.08-4.51-4.12-5.97-2.04-1.46-4.57-2.19-7.6-2.19-3.93,0-7.11,1.35-9.52,4.04-2.42,2.7-3.63,6.51-3.63,11.45s1.21,8.84,3.63,11.57c2.42,2.72,5.59,4.08,9.52,4.08,3.02,0,5.54-.71,7.56-2.12,2.02-1.41,3.4-3.43,4.16-6.05h7.41c-1.11,4.23-3.33,7.62-6.65,10.17s-7.48,3.82-12.47,3.82c-3.93,0-7.42-.88-10.47-2.65-3.05-1.76-5.43-4.26-7.14-7.48-1.71-3.22-2.57-7-2.57-11.34s.86-8.02,2.57-11.23Z"/>
      <path class="cls-1" d="M287.32,309.83c-.91-.91-1.36-2.01-1.36-3.33s.45-2.42,1.36-3.33,2.02-1.36,3.33-1.36,2.33,.45,3.21,1.36c.88,.91,1.32,2.02,1.32,3.33s-.44,2.42-1.32,3.33c-.88,.91-1.95,1.36-3.21,1.36s-2.42-.45-3.33-1.36Zm6.65,8.09v41.42h-6.88v-41.42h6.88Z"/>
      <path class="cls-1" d="M311.82,303.41v55.94h-6.88v-55.94h6.88Z"/>
      <path class="cls-1" d="M323,309.83c-.91-.91-1.36-2.01-1.36-3.33s.45-2.42,1.36-3.33,2.02-1.36,3.33-1.36,2.33,.45,3.21,1.36c.88,.91,1.32,2.02,1.32,3.33s-.44,2.42-1.32,3.33c-.88,.91-1.95,1.36-3.21,1.36s-2.42-.45-3.33-1.36Zm6.65,8.09v41.42h-6.88v-41.42h6.88Z"/>
      <path class="cls-1" d="M349,323.59v24.42c0,2.02,.43,3.44,1.29,4.27,.86,.83,2.34,1.25,4.46,1.25h5.06v5.82h-6.2c-3.83,0-6.7-.88-8.62-2.65-1.92-1.76-2.87-4.66-2.87-8.69v-24.42h-5.37v-5.67h5.37v-10.43h6.88v10.43h10.81v5.67h-10.81Z"/>
      <path class="cls-1" d="M367.37,327.33c1.71-3.2,4.07-5.68,7.07-7.45,3-1.76,6.34-2.65,10.02-2.65s6.78,.78,9.45,2.34c2.67,1.56,4.66,3.53,5.97,5.9v-7.56h6.95v41.42h-6.95v-7.71c-1.36,2.42-3.39,4.42-6.09,6.01-2.7,1.59-5.83,2.38-9.41,2.38s-7.01-.91-9.98-2.72c-2.97-1.81-5.32-4.36-7.03-7.63-1.71-3.28-2.57-7-2.57-11.19s.86-7.95,2.57-11.15Zm30.62,3.06c-1.26-2.32-2.96-4.09-5.1-5.33-2.14-1.23-4.5-1.85-7.07-1.85s-4.91,.61-7.03,1.81c-2.12,1.21-3.81,2.97-5.06,5.29-1.26,2.32-1.89,5.04-1.89,8.16s.63,5.93,1.89,8.28c1.26,2.34,2.95,4.13,5.06,5.37,2.12,1.24,4.46,1.85,7.03,1.85s4.93-.62,7.07-1.85c2.14-1.23,3.84-3.02,5.1-5.37,1.26-2.34,1.89-5.08,1.89-8.2s-.63-5.85-1.89-8.16Z"/>
      <path class="cls-1" d="M426.11,323.59v24.42c0,2.02,.43,3.44,1.29,4.27,.86,.83,2.34,1.25,4.46,1.25h5.06v5.82h-6.2c-3.83,0-6.7-.88-8.62-2.65-1.92-1.76-2.87-4.66-2.87-8.69v-24.42h-5.37v-5.67h5.37v-10.43h6.88v10.43h10.81v5.67h-10.81Z"/>
      <path class="cls-1" d="M482.05,341.21h-33.11c.25,4.08,1.65,7.27,4.2,9.56,2.54,2.29,5.63,3.44,9.26,3.44,2.97,0,5.45-.69,7.45-2.08,1.99-1.39,3.39-3.24,4.2-5.56h7.41c-1.11,3.98-3.33,7.22-6.65,9.71-3.33,2.49-7.46,3.74-12.4,3.74-3.93,0-7.45-.88-10.55-2.65-3.1-1.76-5.53-4.27-7.29-7.52-1.76-3.25-2.65-7.02-2.65-11.3s.86-8.04,2.57-11.26c1.71-3.22,4.12-5.71,7.22-7.45,3.1-1.74,6.66-2.61,10.7-2.61s7.41,.86,10.43,2.57c3.02,1.71,5.35,4.07,6.99,7.07,1.64,3,2.46,6.39,2.46,10.17,0,1.31-.08,2.7-.23,4.16Zm-8.62-12.36c-1.16-1.89-2.73-3.33-4.72-4.31-1.99-.98-4.2-1.47-6.61-1.47-3.48,0-6.44,1.11-8.88,3.33-2.44,2.22-3.84,5.29-4.2,9.22h26.15c0-2.62-.58-4.88-1.74-6.77Z"/>
      <path class="cls-1" d="M537.76,359.35l-12.55-21.54h-8.31v21.54h-6.88v-52.69h17.01c3.98,0,7.34,.68,10.09,2.04,2.75,1.36,4.8,3.2,6.16,5.52,1.36,2.32,2.04,4.96,2.04,7.94,0,3.63-1.05,6.83-3.14,9.6-2.09,2.77-5.23,4.61-9.41,5.52l13.23,22.07h-8.24Zm-20.86-27.06h10.13c3.73,0,6.53-.92,8.39-2.76,1.86-1.84,2.8-4.3,2.8-7.37s-.92-5.54-2.76-7.26c-1.84-1.71-4.65-2.57-8.43-2.57h-10.13v19.96Z"/>
      <path class="cls-1" d="M592.79,341.21h-33.11c.25,4.08,1.65,7.27,4.2,9.56,2.54,2.29,5.63,3.44,9.26,3.44,2.97,0,5.45-.69,7.45-2.08,1.99-1.39,3.39-3.24,4.2-5.56h7.41c-1.11,3.98-3.33,7.22-6.65,9.71-3.33,2.49-7.46,3.74-12.4,3.74-3.93,0-7.45-.88-10.55-2.65-3.1-1.76-5.53-4.27-7.29-7.52-1.76-3.25-2.65-7.02-2.65-11.3s.86-8.04,2.57-11.26c1.71-3.22,4.12-5.71,7.22-7.45,3.1-1.74,6.66-2.61,10.7-2.61s7.41,.86,10.43,2.57c3.02,1.71,5.35,4.07,6.99,7.07,1.64,3,2.46,6.39,2.46,10.17,0,1.31-.08,2.7-.23,4.16Zm-8.62-12.36c-1.16-1.89-2.73-3.33-4.72-4.31-1.99-.98-4.2-1.47-6.61-1.47-3.48,0-6.44,1.11-8.88,3.33-2.44,2.22-3.84,5.29-4.2,9.22h26.15c0-2.62-.58-4.88-1.74-6.77Z"/>
      <path class="cls-1" d="M608.21,303.41v55.94h-6.88v-55.94h6.88Z"/>
      <path class="cls-1" d="M626.69,357.38c-3.15-1.76-5.62-4.27-7.41-7.52-1.79-3.25-2.68-7.02-2.68-11.3s.92-7.97,2.76-11.23c1.84-3.25,4.35-5.75,7.52-7.48,3.17-1.74,6.73-2.61,10.66-2.61s7.48,.87,10.66,2.61c3.17,1.74,5.68,4.22,7.52,7.45,1.84,3.23,2.76,6.98,2.76,11.26s-.95,8.05-2.83,11.3c-1.89,3.25-4.45,5.76-7.67,7.52-3.23,1.76-6.8,2.65-10.73,2.65s-7.4-.88-10.54-2.65Zm17.5-5.14c2.17-1.16,3.92-2.9,5.25-5.22,1.33-2.32,2-5.14,2-8.47s-.66-6.15-1.97-8.47c-1.31-2.32-3.02-4.04-5.14-5.18-2.12-1.13-4.41-1.7-6.88-1.7s-4.83,.57-6.92,1.7c-2.09,1.13-3.77,2.86-5.03,5.18-1.26,2.32-1.89,5.14-1.89,8.47s.62,6.22,1.85,8.54c1.23,2.32,2.88,4.04,4.95,5.18,2.07,1.13,4.33,1.7,6.8,1.7s4.79-.58,6.95-1.74Z"/>
      <path class="cls-1" d="M666.79,327.33c1.71-3.2,4.09-5.68,7.14-7.45,3.05-1.76,6.54-2.65,10.47-2.65,5.09,0,9.29,1.24,12.59,3.7,3.3,2.47,5.48,5.9,6.54,10.28h-7.41c-.71-2.52-2.08-4.51-4.12-5.97-2.04-1.46-4.57-2.19-7.6-2.19-3.93,0-7.11,1.35-9.53,4.04-2.42,2.7-3.63,6.51-3.63,11.45s1.21,8.84,3.63,11.57c2.42,2.72,5.59,4.08,9.53,4.08,3.02,0,5.54-.71,7.56-2.12,2.02-1.41,3.4-3.43,4.16-6.05h7.41c-1.11,4.23-3.33,7.62-6.65,10.17s-7.48,3.82-12.47,3.82c-3.93,0-7.42-.88-10.47-2.65-3.05-1.76-5.43-4.26-7.14-7.48-1.71-3.22-2.57-7-2.57-11.34s.86-8.02,2.57-11.23Z"/>
      <path class="cls-1" d="M711.92,327.33c1.71-3.2,4.07-5.68,7.07-7.45,3-1.76,6.34-2.65,10.02-2.65s6.78,.78,9.45,2.34c2.67,1.56,4.66,3.53,5.97,5.9v-7.56h6.95v41.42h-6.95v-7.71c-1.36,2.42-3.39,4.42-6.09,6.01-2.7,1.59-5.83,2.38-9.41,2.38s-7-.91-9.98-2.72-5.32-4.36-7.03-7.63c-1.71-3.28-2.57-7-2.57-11.19s.86-7.95,2.57-11.15Zm30.62,3.06c-1.26-2.32-2.96-4.09-5.1-5.33-2.14-1.23-4.5-1.85-7.07-1.85s-4.91,.61-7.03,1.81c-2.12,1.21-3.81,2.97-5.06,5.29-1.26,2.32-1.89,5.04-1.89,8.16s.63,5.93,1.89,8.28c1.26,2.34,2.95,4.13,5.06,5.37,2.12,1.24,4.46,1.85,7.03,1.85s4.92-.62,7.07-1.85c2.14-1.23,3.84-3.02,5.1-5.37,1.26-2.34,1.89-5.08,1.89-8.2s-.63-5.85-1.89-8.16Z"/>
      <path class="cls-1" d="M770.66,323.59v24.42c0,2.02,.43,3.44,1.29,4.27,.86,.83,2.34,1.25,4.46,1.25h5.06v5.82h-6.2c-3.83,0-6.7-.88-8.62-2.65-1.92-1.76-2.87-4.66-2.87-8.69v-24.42h-5.37v-5.67h5.37v-10.43h6.88v10.43h10.81v5.67h-10.81Z"/>
      <path class="cls-1" d="M789.25,309.83c-.91-.91-1.36-2.01-1.36-3.33s.45-2.42,1.36-3.33c.91-.91,2.01-1.36,3.33-1.36s2.33,.45,3.21,1.36,1.32,2.02,1.32,3.33-.44,2.42-1.32,3.33-1.95,1.36-3.21,1.36-2.42-.45-3.33-1.36Zm6.65,8.09v41.42h-6.88v-41.42h6.88Z"/>
      <path class="cls-1" d="M814.39,357.38c-3.15-1.76-5.62-4.27-7.41-7.52-1.79-3.25-2.68-7.02-2.68-11.3s.92-7.97,2.76-11.23c1.84-3.25,4.35-5.75,7.52-7.48,3.17-1.74,6.73-2.61,10.66-2.61s7.48,.87,10.66,2.61c3.17,1.74,5.68,4.22,7.52,7.45,1.84,3.23,2.76,6.98,2.76,11.26s-.94,8.05-2.83,11.3c-1.89,3.25-4.45,5.76-7.67,7.52-3.23,1.76-6.8,2.65-10.73,2.65s-7.4-.88-10.55-2.65Zm17.5-5.14c2.17-1.16,3.92-2.9,5.25-5.22,1.33-2.32,2-5.14,2-8.47s-.66-6.15-1.96-8.47c-1.31-2.32-3.02-4.04-5.14-5.18s-4.41-1.7-6.88-1.7-4.83,.57-6.92,1.7c-2.09,1.13-3.77,2.86-5.03,5.18-1.26,2.32-1.89,5.14-1.89,8.47s.62,6.22,1.85,8.54c1.23,2.32,2.88,4.04,4.95,5.18,2.07,1.13,4.33,1.7,6.8,1.7s4.79-.58,6.95-1.74Z"/>
      <path class="cls-1" d="M886.92,321.74c3.12,3.05,4.69,7.45,4.69,13.19v24.42h-6.8v-23.43c0-4.13-1.03-7.29-3.1-9.49-2.07-2.19-4.89-3.29-8.47-3.29s-6.51,1.13-8.66,3.4c-2.14,2.27-3.21,5.57-3.21,9.9v22.9h-6.88v-41.42h6.88v5.9c1.36-2.12,3.21-3.75,5.56-4.91,2.34-1.16,4.92-1.74,7.75-1.74,5.04,0,9.12,1.52,12.25,4.57Z"/>
      <path class="cls-1" d="M953.18,334.55c1.59,1.26,2.85,2.82,3.78,4.69,.93,1.86,1.4,3.85,1.4,5.97,0,2.67-.68,5.08-2.04,7.22-1.36,2.14-3.34,3.83-5.93,5.07-2.6,1.24-5.66,1.85-9.18,1.85h-19.65v-52.69h18.9c3.58,0,6.63,.59,9.15,1.78,2.52,1.18,4.41,2.79,5.67,4.8,1.26,2.02,1.89,4.28,1.89,6.8,0,3.12-.84,5.71-2.53,7.75-1.69,2.04-3.92,3.52-6.69,4.42,1.91,.3,3.67,1.08,5.25,2.34Zm-24.76-5.14h11.57c3.22,0,5.72-.76,7.48-2.27,1.76-1.51,2.65-3.6,2.65-6.27s-.88-4.76-2.65-6.27c-1.76-1.51-4.31-2.27-7.63-2.27h-11.42v17.08Zm20.18,21.85c1.92-1.61,2.87-3.85,2.87-6.73s-1.01-5.23-3.02-6.92c-2.02-1.69-4.71-2.53-8.09-2.53h-11.94v18.6h12.17c3.43,0,6.1-.8,8.01-2.42Z"/>
      <path class="cls-1" d="M1003.86,317.92v41.42h-6.88v-6.12c-1.31,2.12-3.14,3.77-5.48,4.95-2.34,1.18-4.93,1.78-7.75,1.78-3.23,0-6.12-.67-8.69-2-2.57-1.33-4.6-3.34-6.08-6.01-1.49-2.67-2.23-5.92-2.23-9.75v-24.27h6.8v23.36c0,4.08,1.03,7.22,3.1,9.41,2.07,2.19,4.89,3.29,8.47,3.29s6.58-1.13,8.69-3.4c2.12-2.27,3.17-5.57,3.17-9.9v-22.75h6.88Z"/>
      <path class="cls-1" d="M1020.87,358.4c-2.52-1.08-4.51-2.59-5.97-4.54-1.46-1.94-2.27-4.17-2.42-6.69h7.11c.2,2.07,1.17,3.75,2.91,5.07,1.74,1.31,4.02,1.96,6.84,1.96,2.62,0,4.69-.58,6.2-1.74,1.51-1.16,2.27-2.62,2.27-4.38s-.81-3.16-2.42-4.04c-1.61-.88-4.11-1.75-7.48-2.61-3.07-.8-5.58-1.62-7.52-2.46-1.94-.83-3.6-2.07-4.99-3.7-1.39-1.64-2.08-3.79-2.08-6.46,0-2.12,.63-4.06,1.89-5.82,1.26-1.76,3.05-3.16,5.37-4.2,2.32-1.03,4.96-1.55,7.94-1.55,4.58,0,8.29,1.16,11.11,3.48,2.82,2.32,4.33,5.49,4.54,9.52h-6.88c-.15-2.17-1.02-3.9-2.61-5.22-1.59-1.31-3.72-1.97-6.39-1.97-2.47,0-4.43,.53-5.9,1.59-1.46,1.06-2.19,2.45-2.19,4.16,0,1.36,.44,2.48,1.32,3.36,.88,.88,1.99,1.59,3.33,2.12,1.33,.53,3.19,1.12,5.56,1.78,2.97,.81,5.39,1.6,7.26,2.38,1.86,.78,3.46,1.95,4.8,3.51,1.33,1.56,2.03,3.6,2.08,6.12,0,2.27-.63,4.31-1.89,6.12-1.26,1.81-3.04,3.24-5.33,4.27s-4.93,1.55-7.9,1.55c-3.17,0-6.02-.54-8.54-1.63Z"/>
      <path class="cls-1" d="M1053.68,309.83c-.91-.91-1.36-2.01-1.36-3.33s.45-2.42,1.36-3.33c.91-.91,2.01-1.36,3.33-1.36s2.33,.45,3.21,1.36,1.32,2.02,1.32,3.33-.44,2.42-1.32,3.33-1.95,1.36-3.21,1.36-2.42-.45-3.33-1.36Zm6.65,8.09v41.42h-6.88v-41.42h6.88Z"/>
      <path class="cls-1" d="M1103.72,321.74c3.12,3.05,4.69,7.45,4.69,13.19v24.42h-6.8v-23.43c0-4.13-1.03-7.29-3.1-9.49-2.07-2.19-4.89-3.29-8.47-3.29s-6.51,1.13-8.66,3.4c-2.14,2.27-3.21,5.57-3.21,9.9v22.9h-6.88v-41.42h6.88v5.9c1.36-2.12,3.21-3.75,5.56-4.91,2.34-1.16,4.92-1.74,7.75-1.74,5.04,0,9.12,1.52,12.25,4.57Z"/>
      <path class="cls-1" d="M1156.48,341.21h-33.11c.25,4.08,1.65,7.27,4.2,9.56,2.54,2.29,5.63,3.44,9.26,3.44,2.97,0,5.45-.69,7.45-2.08,1.99-1.39,3.39-3.24,4.2-5.56h7.41c-1.11,3.98-3.33,7.22-6.65,9.71s-7.46,3.74-12.4,3.74c-3.93,0-7.45-.88-10.54-2.65-3.1-1.76-5.53-4.27-7.29-7.52-1.76-3.25-2.65-7.02-2.65-11.3s.86-8.04,2.57-11.26c1.71-3.22,4.12-5.71,7.22-7.45,3.1-1.74,6.66-2.61,10.7-2.61s7.41,.86,10.43,2.57c3.02,1.71,5.35,4.07,6.99,7.07s2.46,6.39,2.46,10.17c0,1.31-.08,2.7-.23,4.16Zm-8.62-12.36c-1.16-1.89-2.73-3.33-4.72-4.31-1.99-.98-4.2-1.47-6.61-1.47-3.48,0-6.44,1.11-8.88,3.33-2.45,2.22-3.84,5.29-4.2,9.22h26.16c0-2.62-.58-4.88-1.74-6.77Z"/>
      <path class="cls-1" d="M1171.15,358.4c-2.52-1.08-4.51-2.59-5.97-4.54-1.46-1.94-2.27-4.17-2.42-6.69h7.11c.2,2.07,1.17,3.75,2.91,5.07,1.74,1.31,4.02,1.96,6.84,1.96,2.62,0,4.69-.58,6.2-1.74,1.51-1.16,2.27-2.62,2.27-4.38s-.81-3.16-2.42-4.04c-1.61-.88-4.11-1.75-7.48-2.61-3.07-.8-5.58-1.62-7.52-2.46-1.94-.83-3.6-2.07-4.99-3.7-1.39-1.64-2.08-3.79-2.08-6.46,0-2.12,.63-4.06,1.89-5.82,1.26-1.76,3.05-3.16,5.37-4.2,2.32-1.03,4.96-1.55,7.94-1.55,4.58,0,8.29,1.16,11.11,3.48,2.82,2.32,4.33,5.49,4.54,9.52h-6.88c-.15-2.17-1.02-3.9-2.61-5.22-1.59-1.31-3.72-1.97-6.39-1.97-2.47,0-4.43,.53-5.9,1.59-1.46,1.06-2.19,2.45-2.19,4.16,0,1.36,.44,2.48,1.32,3.36,.88,.88,1.99,1.59,3.33,2.12,1.33,.53,3.19,1.12,5.56,1.78,2.97,.81,5.39,1.6,7.26,2.38,1.86,.78,3.46,1.95,4.8,3.51,1.33,1.56,2.03,3.6,2.08,6.12,0,2.27-.63,4.31-1.89,6.12-1.26,1.81-3.04,3.24-5.33,4.27s-4.93,1.55-7.9,1.55c-3.17,0-6.02-.54-8.54-1.63Z"/>
      <path class="cls-1" d="M1209.85,358.4c-2.52-1.08-4.51-2.59-5.97-4.54-1.46-1.94-2.27-4.17-2.42-6.69h7.11c.2,2.07,1.17,3.75,2.91,5.07,1.74,1.31,4.02,1.96,6.84,1.96,2.62,0,4.69-.58,6.2-1.74,1.51-1.16,2.27-2.62,2.27-4.38s-.81-3.16-2.42-4.04c-1.61-.88-4.11-1.75-7.48-2.61-3.07-.8-5.58-1.62-7.52-2.46-1.94-.83-3.6-2.07-4.99-3.7-1.39-1.64-2.08-3.79-2.08-6.46,0-2.12,.63-4.06,1.89-5.82,1.26-1.76,3.05-3.16,5.37-4.2,2.32-1.03,4.96-1.55,7.94-1.55,4.58,0,8.29,1.16,11.11,3.48,2.82,2.32,4.33,5.49,4.54,9.52h-6.88c-.15-2.17-1.02-3.9-2.61-5.22-1.59-1.31-3.72-1.97-6.39-1.97-2.47,0-4.43,.53-5.9,1.59-1.46,1.06-2.19,2.45-2.19,4.16,0,1.36,.44,2.48,1.32,3.36,.88,.88,1.99,1.59,3.33,2.12,1.33,.53,3.19,1.12,5.56,1.78,2.97,.81,5.39,1.6,7.26,2.38,1.86,.78,3.46,1.95,4.8,3.51,1.33,1.56,2.03,3.6,2.08,6.12,0,2.27-.63,4.31-1.89,6.12-1.26,1.81-3.04,3.24-5.33,4.27s-4.93,1.55-7.9,1.55c-3.17,0-6.02-.54-8.54-1.63Z"/>
    </g>
  </g>
</svg>