<svg width="50" height="50" viewBox="0 0 50 50" fill="none" xmlns="http://www.w3.org/2000/svg">
<circle cx="25" cy="25" r="25" fill="url(#paint0_radial_4788_20)"/>
<path d="M24.4874 13.0544C24.9636 12.9637 25.4398 12.9864 25.916 13.1224C26.9817 13.3946 27.7073 14.0408 28.0928 15.0612C28.1835 15.4014 28.1609 16.1043 28.0248 17.1701C27.9341 17.7596 27.6733 19.449 27.2425 22.2381C26.6076 26.3651 26.2107 28.4966 26.052 28.6327C25.8933 28.7007 25.3491 28.712 24.4194 28.6667C24.2379 28.6667 24.1359 28.6553 24.1132 28.6327C23.9999 28.5646 23.8978 28.3039 23.8071 27.8503C23.7391 27.4422 23.4443 25.5714 22.9228 22.2381C22.2652 17.9297 21.959 15.6281 22.0044 15.3333C22.0044 15.288 22.0271 15.1973 22.0724 15.0612C22.3672 14.1088 23.0588 13.4739 24.1472 13.1565C24.2606 13.1111 24.374 13.0771 24.4874 13.0544ZM24.5214 30.8776C24.9069 30.7868 25.3491 30.8095 25.8479 30.9456C26.8457 31.195 27.5373 31.8073 27.9228 32.7823C27.9908 32.8957 28.0361 33.0204 28.0588 33.1565C28.1949 33.678 28.1949 34.1882 28.0588 34.6871C27.7867 35.7302 27.1518 36.4331 26.154 36.7959C26.0407 36.8413 25.9386 36.8753 25.8479 36.898C25.3264 37.034 24.8162 37.034 24.3173 36.898C23.2742 36.6258 22.5713 35.9909 22.2085 34.9932C22.1631 34.8798 22.1291 34.7778 22.1064 34.6871C21.9704 34.1882 21.9704 33.678 22.1064 33.1565C22.2878 32.4762 22.628 31.9433 23.1268 31.5578C23.5123 31.2404 23.9772 31.0136 24.5214 30.8776Z" fill="white"/>
<defs>
<radialGradient id="paint0_radial_4788_20" cx="0" cy="0" r="1" gradientUnits="userSpaceOnUse" gradientTransform="translate(25 25) rotate(-90) scale(25 39.441)">
<stop stop-color="#FF0000"/>
<stop offset="1" stop-color="#FF7676"/>
</radialGradient>
</defs>
</svg>
