<svg width="20" height="20" viewBox="0 0 20 20" fill="none" xmlns="http://www.w3.org/2000/svg">
<path d="M11.976 16.351C12.2807 16.0462 12.694 15.875 13.125 15.875H16.875C17.306 15.875 17.7193 16.0462 18.024 16.351C18.3288 16.6557 18.5 17.069 18.5 17.5V18.5H17.75V17.5C17.75 17.2679 17.6578 17.0454 17.4937 16.8813C17.3296 16.7172 17.1071 16.625 16.875 16.625H13.125C12.8929 16.625 12.6704 16.7172 12.5063 16.8813C12.3422 17.0454 12.25 17.2679 12.25 17.5V18.5H11.5V17.5C11.5 17.069 11.6712 16.6557 11.976 16.351ZM13.1292 13.75C12.882 13.38 12.75 12.945 12.75 12.5C12.75 11.9033 12.9871 11.331 13.409 10.909C13.831 10.4871 14.4033 10.25 15 10.25C15.445 10.25 15.88 10.382 16.25 10.6292C16.62 10.8764 16.9084 11.2278 17.0787 11.639C17.249 12.0501 17.2936 12.5025 17.2068 12.939C17.12 13.3754 16.9057 13.7763 16.591 14.091C16.2763 14.4057 15.8754 14.62 15.439 14.7068C15.0025 14.7936 14.5501 14.749 14.139 14.5787C13.7278 14.4084 13.3764 14.12 13.1292 13.75ZM16.2472 13.3334C16.412 13.0867 16.5 12.7967 16.5 12.5C16.5 12.1022 16.342 11.7206 16.0607 11.4393C15.7794 11.158 15.3978 11 15 11C14.7033 11 14.4133 11.088 14.1666 11.2528C13.92 11.4176 13.7277 11.6519 13.6142 11.926C13.5006 12.2001 13.4709 12.5017 13.5288 12.7926C13.5867 13.0836 13.7296 13.3509 13.9393 13.5607C14.1491 13.7704 14.4164 13.9133 14.7074 13.9712C14.9983 14.0291 15.2999 13.9994 15.574 13.8858C15.8481 13.7723 16.0824 13.58 16.2472 13.3334ZM6.875 16.5H8.5V17.25H6.875C5.78098 17.25 4.73177 16.8154 3.95818 16.0418C3.1846 15.2682 2.75 14.219 2.75 13.125V12.75H3.5V13.125C3.5 14.0201 3.85558 14.8786 4.48851 15.5115C5.12145 16.1444 5.97989 16.5 6.875 16.5ZM12.125 6.5H16V7.25H12.125V6.5ZM12.125 4H17.875V4.75H12.125V4ZM12.125 1.5H17.875V2.25H12.125V1.5ZM1.97595 7.60095C2.2807 7.29621 2.69402 7.125 3.125 7.125H6.875C7.30598 7.125 7.7193 7.29621 8.02405 7.60095C8.3288 7.9057 8.5 8.31902 8.5 8.75V9.75H7.75V8.75C7.75 8.51794 7.65781 8.29538 7.49372 8.13128C7.32962 7.96719 7.10706 7.875 6.875 7.875H3.125C2.89294 7.875 2.67038 7.96719 2.50628 8.13128C2.34219 8.29538 2.25 8.51794 2.25 8.75V9.75H1.5V8.75C1.5 8.31902 1.6712 7.9057 1.97595 7.60095ZM6.25003 5.62081C5.88002 5.86804 5.44501 6 5 6C4.40326 6 3.83097 5.76295 3.40901 5.34099C2.98705 4.91903 2.75 4.34674 2.75 3.75C2.75 3.30499 2.88196 2.86998 3.12919 2.49997C3.37643 2.12996 3.72783 1.84157 4.13896 1.67127C4.5501 1.50097 5.0025 1.45642 5.43895 1.54323C5.87541 1.63005 6.27632 1.84434 6.59099 2.15901C6.90566 2.47368 7.11995 2.87459 7.20677 3.31105C7.29358 3.74751 7.24903 4.19991 7.07873 4.61104C6.90843 5.02217 6.62004 5.37357 6.25003 5.62081ZM5.83336 2.5028C5.58668 2.33797 5.29667 2.25 5 2.25C4.60218 2.25 4.22064 2.40804 3.93934 2.68934C3.65804 2.97065 3.5 3.35218 3.5 3.75C3.5 4.04667 3.58797 4.33668 3.7528 4.58336C3.91762 4.83003 4.15189 5.02229 4.42597 5.13582C4.70006 5.24935 5.00166 5.27906 5.29264 5.22118C5.58361 5.1633 5.85088 5.02044 6.06066 4.81066C6.27044 4.60088 6.4133 4.33361 6.47118 4.04264C6.52906 3.75167 6.49935 3.45006 6.38582 3.17598C6.27229 2.90189 6.08003 2.66762 5.83336 2.5028Z" fill="#551a8b" stroke="#551a8b" stroke-width="0.5"/>
</svg>
