<svg width="50" height="50" viewBox="0 0 50 50" fill="none" xmlns="http://www.w3.org/2000/svg">
<circle cx="25" cy="25" r="25" fill="url(#paint0_radial_4788_14)"/>
<path d="M20.6951 29.2805L33.3946 16.5914C33.7892 16.1971 34.2915 16 34.9013 16C35.5112 16 36.0135 16.1971 36.4081 16.5914C36.8027 16.9857 37 17.4876 37 18.0969C37 18.7063 36.8027 19.2081 36.4081 19.6024L22.2018 33.7969C21.7713 34.227 21.2691 34.4421 20.6951 34.4421C20.1211 34.4421 19.6188 34.227 19.1883 33.7969L13.5919 28.2051C13.1973 27.8108 13 27.309 13 26.6996C13 26.0903 13.1973 25.5885 13.5919 25.1942C13.9865 24.7999 14.4888 24.6027 15.0987 24.6027C15.7085 24.6027 16.2108 24.7999 16.6054 25.1942L20.6951 29.2805Z" fill="#E5E5E5"/>
<defs>
<radialGradient id="paint0_radial_4788_14" cx="0" cy="0" r="1" gradientUnits="userSpaceOnUse" gradientTransform="translate(25 25) rotate(-90) scale(25 39.441)">
<stop stop-color="#72C31C"/>
<stop offset="1" stop-color="#9CE86B"/>
</radialGradient>
</defs>
</svg>
