<svg width="20" height="20" viewBox="0 0 20 20" fill="none" xmlns="http://www.w3.org/2000/svg">
<path d="M1.66663 4.16602C1.66663 3.50297 1.93002 2.86709 2.39886 2.39825C2.8677 1.92941 3.50358 1.66602 4.16663 1.66602H15.8333C16.4963 1.66602 17.1322 1.92941 17.6011 2.39825C18.0699 2.86709 18.3333 3.50297 18.3333 4.16602V10.6743C17.9614 10.3171 17.5405 10.0146 17.0833 9.77602V7.91602H8.79996L10.2333 9.34935C10.2947 9.40657 10.344 9.47557 10.3781 9.55223C10.4123 9.6289 10.4306 9.71166 10.4321 9.79558C10.4336 9.8795 10.4182 9.96286 10.3867 10.0407C10.3553 10.1185 10.3085 10.1892 10.2492 10.2485C10.1898 10.3079 10.1191 10.3547 10.0413 10.3861C9.96347 10.4176 9.88011 10.433 9.79619 10.4315C9.71227 10.43 9.62951 10.4117 9.55284 10.3775C9.47618 10.3433 9.40718 10.2941 9.34996 10.2327L7.91663 8.79935V12.916H9.42746C9.29913 13.3143 9.21496 13.7327 9.18246 14.166H4.16663C3.50358 14.166 2.8677 13.9026 2.39886 13.4338C1.93002 12.9649 1.66663 12.3291 1.66663 11.666V4.16602ZM4.16663 2.91602C3.83511 2.91602 3.51716 3.04771 3.28274 3.28213C3.04832 3.51655 2.91663 3.83449 2.91663 4.16602V6.66602H3.92329C3.75551 6.28216 3.70735 5.85664 3.7851 5.445C3.86284 5.03335 4.06288 4.65471 4.3591 4.35849C4.65532 4.06227 5.03397 3.86223 5.44561 3.78449C5.85725 3.70674 6.28277 3.7549 6.66663 3.92268V2.91602H4.16663ZM7.91663 2.91602V3.92268C8.30048 3.7549 8.726 3.70674 9.13764 3.78449C9.54929 3.86223 9.92793 4.06227 10.2242 4.35849C10.5204 4.65471 10.7204 5.03335 10.7982 5.445C10.8759 5.85664 10.8277 6.28216 10.66 6.66602H17.0833V4.16602C17.0833 3.83449 16.9516 3.51655 16.7172 3.28213C16.4828 3.04771 16.1648 2.91602 15.8333 2.91602H7.91663ZM6.66663 12.916V8.79935L5.23329 10.2327C5.11481 10.3431 4.95811 10.4032 4.79619 10.4003C4.63427 10.3975 4.47979 10.3319 4.36527 10.2174C4.25076 10.1029 4.18517 9.94837 4.18231 9.78645C4.17946 9.62453 4.23956 9.46783 4.34996 9.34935L5.78329 7.91602H2.91663V11.666C2.91663 11.9975 3.04832 12.3155 3.28274 12.5499C3.51716 12.7843 3.83511 12.916 4.16663 12.916H6.66663ZM8.74996 6.66602C8.91478 6.66602 9.07589 6.61714 9.21293 6.52557C9.34998 6.43401 9.45679 6.30386 9.51986 6.15158C9.58293 5.99931 9.59943 5.83176 9.56728 5.67011C9.53513 5.50846 9.45576 5.35997 9.33921 5.24343C9.22267 5.12688 9.07419 5.04752 8.91253 5.01536C8.75088 4.98321 8.58333 4.99971 8.43106 5.06278C8.27878 5.12586 8.14864 5.23267 8.05707 5.36971C7.9655 5.50675 7.91663 5.66786 7.91663 5.83268V6.66602H8.74996ZM6.66663 5.82935C6.66597 5.66467 6.61653 5.50389 6.52457 5.36729C6.4326 5.23068 6.30222 5.12439 6.14989 5.06183C5.99756 4.99927 5.83011 4.98324 5.66868 5.01577C5.50725 5.0483 5.35908 5.12793 5.24287 5.2446C5.12666 5.36128 5.04762 5.50977 5.01574 5.67133C4.98385 5.83289 5.00055 6.00027 5.06372 6.15235C5.12689 6.30443 5.2337 6.43438 5.37067 6.5258C5.50763 6.61722 5.66862 6.66601 5.83329 6.66602H6.66663V5.82935ZM19.1666 14.5827C19.1666 13.3671 18.6837 12.2013 17.8242 11.3418C16.9647 10.4822 15.7989 9.99935 14.5833 9.99935C13.3677 9.99935 12.2019 10.4822 11.3424 11.3418C10.4828 12.2013 9.99996 13.3671 9.99996 14.5827C9.99996 15.7983 10.4828 16.964 11.3424 17.8236C12.2019 18.6831 13.3677 19.166 14.5833 19.166C15.7989 19.166 16.9647 18.6831 17.8242 17.8236C18.6837 16.964 19.1666 15.7983 19.1666 14.5827ZM15 14.9993L15.0008 17.0852C15.0008 17.1957 14.9569 17.3017 14.8788 17.3798C14.8006 17.458 14.6946 17.5018 14.5841 17.5018C14.4736 17.5018 14.3676 17.458 14.2895 17.3798C14.2114 17.3017 14.1675 17.1957 14.1675 17.0852V14.9993H12.08C11.9695 14.9993 11.8635 14.9555 11.7853 14.8773C11.7072 14.7992 11.6633 14.6932 11.6633 14.5827C11.6633 14.4722 11.7072 14.3662 11.7853 14.2881C11.8635 14.2099 11.9695 14.166 12.08 14.166H14.1666V12.0827C14.1666 11.9722 14.2105 11.8662 14.2887 11.7881C14.3668 11.7099 14.4728 11.666 14.5833 11.666C14.6938 11.666 14.7998 11.7099 14.8779 11.7881C14.9561 11.8662 15 11.9722 15 12.0827V14.166H17.0808C17.1913 14.166 17.2973 14.2099 17.3754 14.2881C17.4536 14.3662 17.4975 14.4722 17.4975 14.5827C17.4975 14.6932 17.4536 14.7992 17.3754 14.8773C17.2973 14.9555 17.1913 14.9993 17.0808 14.9993H15Z" fill="#551a8b"/>
</svg>
