<?xml version="1.0" encoding="UTF-8"?>
<svg version="1.1" viewBox="0 0 2048 2048" width="512" height="512" xmlns="http://www.w3.org/2000/svg">
<path transform="translate(597)" d="m0 0h844l26 6 21 7 20 10 15 10 14 11 18 18 12 16 10 17 8 17 7 21 3 15 2 19 1 44 37 7 25 7 27 11 17 8 19 11 17 12 14 11 13 12 5 4 7 8 12 13 14 19 11 17 14 27 8 19 7 22 5 21 4 26 1 12v36l-3 26-5 25-6 21-8 21-12 25-12 20-13 18-11 13-9 10-15 15-11 9-16 12-17 11-22 12-26 11-21 7-26 6-25 4v1100l-2 19-5 22-7 19-8 16-9 15-11 14-9 10-9 9-17 13-17 10-17 8-21 7-26 6h-838l-31-7-18-6-21-10-15-10-13-10-21-21-12-16-9-16-8-17-6-18-5-25-1-13v-1713l2-17 5-22 7-19 8-16 9-15 10-13 11-12 8-8 17-13 18-11 17-8 26-8z" fill="#FBFCFC"/>
<path transform="translate(597)" d="m0 0h844l26 6 21 7 20 10 15 10 14 11 18 18 12 16 10 17 8 17 7 21 3 15 2 19 1 44 37 7 25 7 27 11 17 8 19 11 17 12 14 11 13 12 5 4 7 8 12 13 14 19 11 17 14 27 8 19 7 22 5 21 4 26 1 12v36l-3 26-5 25-6 21-8 21-12 25-12 20-13 18-11 13-9 10-15 15-11 9-16 12-17 11-22 12-26 11-21 7-26 6-25 4v1100l-2 19-5 22-7 19-8 16-9 15-11 14-9 10-9 9-17 13-17 10-17 8-21 7-26 6h-838l-31-7-18-6-21-10-15-10-13-10-21-21-12-16-9-16-8-17-6-18-5-25-1-13v-1713l2-17 5-22 7-19 8-16 9-15 10-13 11-12 8-8 17-13 18-11 17-8 26-8zm161 60-141 1-27 2-15 5v2l-9 3-15 9-13 11-9 9-12 17-7 15-5 16-2 13-1 20-1 100v144l1 169v283l-1 107v314l1 463 1 114 2 18 3 12 6 15 6 11 3 7 12 11 7 8 11 8 2 3 7 3 6 2v2l9 2v2l17 4 16 2 71 1h153l1-1 2-24 4-14 7-13 9-11 7-7 14-9 11-5 10-2 16-1h86l19 1-14 8-11 9-8 8-9 13-7 14-4 16-2 16 1 2h437l29-1 17-3 18-6 11-5v-2l5-2 6-3v-2l4-2 10-9 5-5 6-7 9-15 8-16 4-18 1-6 1-26v-1078l-2-4-27-5-26-7-22-8-26-12-11-7-15-10-11-8-8-7-7-7-7-6-5-5-9-10h-2l-2-4-6-6h-2v21l-2 9-8 11-10 6-4 1h-13l-10-5h-2l-2-4-4-5-3-6-1-5v-132l-2-67-1-2-201-1-10-4-8-8-5-10v-14l4-9 6-7 8-5 5-1h206l7-24 8-25 8-19 12-22 8-12 8-11 10-13 16-17 12-12 11-9 13-10 18-12 18-10 23-11 20-7 18-5 18-4 16-3 1-4-1-47-2-12-5-16-8-16-7-11-12-13-10-9h-2l-1-3-9-5-15-8-15-5-16-3-141-1z" fill="#7DA0B1"/>
<path transform="translate(1449,755)" d="m0 0 7 1 20 8 24 7 23 5 12 2 2 4v1078l-1 26-3 16-3 9-9 19-10 15-10 10-10 9h-2v2l-9 5h-2v2l-19 8-13 4-14 2-29 1h-437l-1-6 4-22 5-12 7-13 9-11 8-8 10-7 8-5 4-2-19-1h-86l-16 1-13 3-15 8-10 8-7 7-9 13-5 11-3 11-2 24-1 1h-85l-52-1-11-12-9-10-7-10-8-14-5-13-5-11-3-13-3-23-2-50v-61l2-15v-8l-2-6v-4h11l17 9 13 4 7 1h22l18-6 16-9 10-8 8-9 9-15 4-10 3-14v-22l-4-16-8-16-8-11-9-9-16-10-11-5-14-3h-22l-10 2-13 5-8 4-11 8-6 5h-4l1-7 8-17-1-14-1-12-1-34v-63l-1-9 1-2 4 1 8 3 15 8 14 4 6 1h654l15-3 11-4 14-8 14-13 9-13 7-15 4-18v-16l-4-17-9-19-8-10-3-3v-2l-4-2-9-7-16-8-16-4-657-1-11 1-12 4-13 7-14 11-2 2-4-1 1-5 8-15 5-7-2-5-3-7-2-11-1-29v-54h142v-2h595l18-2 12-5 12-8 10-10 9-13 5-12 1-7 1-359z" fill="#DFF4FC"/>
<path transform="translate(617,61)" d="m0 0h95v1l-15 1-5 4-7 9-8 8-9 13-10 19-6 17-4 18-2 14-2 62v111h133v1l-126 1-14 2-12 5-13 10-10 11-8 14-3 9-1 18v718l2 21 4 11 7 10 2 4h2l4 5 8 6 13 8 8 4 5 1 140 1v1h-142l1 54 1 29 3 15 4 6-2 5-7 11-5 10v3l4-1 12-10 12-7 10-4 6-2 11-1 657 1 16 4 16 8 9 7 5 5 9 10 9 17 4 13 2 9v16l-4 18-8 17-10 13-7 7-11 8-16 8-12 3-7 1h-654l-17-4-16-8-3-2-7-2-4-2 1 11v63l1 34 2 19v7l-9 19-1 5 5-2 13-10 9-5 12-5 6-2 7-1h22l14 3 16 8 11 7 11 11 7 10 8 16 4 16v22l-4 17-8 16-9 12-7 7-15 10-13 6-13 4h-22l-14-3-12-5-11-6-11-1 3 10v8l-2 15v61l2 50 4 29 6 17 5 11 7 14 8 12 8 8 7 8 5 6 52 1v1h-68l-71-1-20-3-13-3v-2l-9-2v-2l-6-2-8-4-4-4-11-9-11-12-5-4-8-16-6-14-3-9-2-11-1-13-1-118-1-459v-317l1-126v-284l-1-146v-144l1-100 1-20 3-17 6-17 7-13 12-16 11-11 15-11 16-8h2v-2l15-5z" fill="#C9EDFD"/>
<path transform="translate(1536,212)" d="m0 0h66l33 6 25 7 27 11 17 8 19 11 17 12 14 11 13 12 5 4 7 8 12 13 14 19 11 17 14 27 8 19 7 22 5 21 4 26 1 12v36l-3 26-5 25-6 21-8 21-12 25-12 20-13 18-11 13-9 10-15 15-11 9-16 12-17 11-22 12-26 11-21 7-26 6-23 4-64-1-27-5-26-7-22-8-26-12-11-7-15-10-11-8-8-7-7-7-8-7v-2l-4-2-7-7-7-8-7-6 1 6v15l-2 9-8 11-9 6-6 2h-13l-12-6-7-9-3-6-1-5v-132l-2-69h-201l-10-4-9-9-5-10v-14l4-9 7-8 8-5 5-1h127l79 1 4-17 9-30 9-21 12-22 8-12 8-11 10-13 16-17 13-13 11-9 13-10 18-12 18-10 23-11 20-7 18-5 18-4z" fill="#00F0A8"/>
<path transform="translate(758,60)" d="m0 0h535l141 1 16 3 17 6 15 8 8 5v2l4 2 8 7 8 8 10 14 8 16 4 10 3 12 1 8 1 48-1 3-26 5-23 6-20 7-18 8-21 11-16 10-19 14-10 9-8 7-15 15-7 8-8 10-8 11-5 5h-4-551l-133-1-1-2v-114l2-57 4-24 4-15 8-18 8-14 9-12 9-9 7-9 3-2 15-1z" fill="#DFF4FC"/>
<path transform="translate(1250,338)" d="m0 0h78 4v3l-13 22-10 22-5 14-1-2-8 1h-584l-54 1-7 2-1 28v664l1 39 1 4 2 1 50 1 153 1h386l114-1 28-1 4-1 1-60 1-352h2l-1-3 2-3 10 8 5 3 12 8 14 9 17 8-2 1-1 385-2 10-7 14-9 11-9 9-13 8-10 4-18 2h-735l-10-3-13-8-8-6-7-6v-2h-2l-8-11-5-10-2-10-1-15v-718l1-18 5-13 7-11 11-12 12-9 12-5 14-2z" fill="#A7D2DB"/>
<path transform="translate(693,1307)" d="m0 0 657 1 16 4 16 8 9 7 5 5 9 10 9 17 4 13 2 9v16l-4 18-8 17-10 13-7 7-11 8-16 8-12 3-7 1h-654l-17-4-16-8-10-7-6-5-8-10-9-16-5-14-1-6v-24l3-14 7-16 9-13 7-7 15-11 13-6 9-3z" fill="#00F0A8"/>
<path transform="translate(1536,212)" d="m0 0h66l33 6 21 6 3 2h-2l-1 2-7 4-10 3-26 13-17 10-11 8-13 10-3 1v2l-9 7-5 5-7 6-3 4h-2l-2 4-7 8-1 2h-2l-2 4-7 10h-2l-2 5-10 16-8 14-9 21-5 12-6 18-7 26-2 15-9-3h-15l-9 4-6 5-5 10-2 8 1 9 5 10 12 13 26 26 1 4 4 10 1 8 3 12 6 18 6 15 10 21 12 21 7 11 11 15v2h2l9 11 5 6 6 5 4 4v2l4 2v2l5 2 7 7 20 14 15 10 12 7 19 9 3 2 12 2 7 5-2 2-26 7-33 6-64-1-27-5-26-7-22-8-26-12-11-7-15-10-11-8-8-7-7-7-8-7v-2l-4-2-7-7-7-8-7-6 1 6v15l-2 9-8 11-9 6-6 2h-13l-12-6-7-9-3-6-1-5v-132l-2-69h-201l-10-4-9-9-5-10v-14l4-9 7-8 8-5 5-1h127l79 1 4-17 9-30 9-21 12-22 8-12 8-11 10-13 16-17 13-13 11-9 13-10 18-12 18-10 23-11 20-7 18-5 18-4z" fill="#0AD092"/>
<path transform="translate(1311,811)" d="m0 0h15l9 4 7 5 6 10 1 3v240l-3 8-4 6-5 5-7 4-6 2-53 1h-178l-8-1v-2l-9-2-8-8-5-9-1-2v-14l4-10 8-8 10-5h205v-204l4-10 9-9z" fill="#537B86"/>
<path transform="translate(711,811)" d="m0 0h15l12 6 8 9 3 8v205l26-1h169l12 1 8 4 7 7 5 11v13l-6 12-4 5-7 5-7 2-14 1h-186l-38-1-10-4-8-7-5-7-2-10v-236l6-12 9-8z" fill="#537B85"/>
<path transform="translate(716,438)" d="m0 0h236l9 3 9 8 6 12v11l-3 10-6 8-9 6-6 2h-203v204l-5 10-5 5-5 4-8 4h-14l-10-5-8-8-4-8-1-4v-238l4-10 1-2h2l2-4 9-6z" fill="#527A84"/>
<path transform="translate(812,538)" d="m0 0h127l8 3 8 6 6 9 2 6v126l-5 10-5 6-9 6-7 2h-125l-11-6-7-8-4-7-1-4v-125l4-10 1-2h2l2-4 8-6z" fill="#527A85"/>
<path transform="translate(693,1307)" d="m0 0 648 1v1l-507 1 2 1-1 3h-2v2l-12 4-9 7-5 6h-2v2h-2l-2 4-7 11-5 11-5 17v24l3 12 5 12 6 10 11 13 10 10 9 6 3 3v2h6v1l-10 1h-136l-17-4-16-8-10-7-6-5-8-10-9-16-5-14-1-6v-24l3-14 7-16 9-13 7-7 15-11 13-6 9-3z" fill="#0AD092"/>
<path transform="translate(1686,388)" d="m0 0h13l11 4 8 7 5 10 1 10-3 10-7 11-11 14-9 10-11 14-12 14-26 32-12 14-8 10-11 13-11 14-12 14-9 11-9 9-10 4h-13l-12-6-13-12-15-15-7-8-21-21-8-7-40-40-7-10-3-9 1-10 4-10 5-6 5-4 8-3h15l7 3 9 7 10 9 17 17v2l4 2 45 45 5-5 12-14 8-10 10-12 9-11 10-12 8-10 12-14 8-10 14-17 9-11 12-14 8-6z" fill="#FAFCFC"/>
<path transform="translate(868,142)" d="m0 0h43l283 1 10 6 8 10 3 8v11l-5 10-8 9-7 4-4 1h-344l-9-4-8-7-6-12-1-10 3-10 6-8 7-6 7-2z" fill="#8DBBCA"/>
<path transform="translate(276,534)" d="m0 0h12l10 4 8 7 6 12v13l-3 8-7 9-9 10-13 18-8 14-8 19-6 20-3 15-1 9v33l4 24 5 17 9 21 8 14 10 14 12 14 8 11 2 6v13l-6 12-9 8-8 3h-14l-12-6-10-10-9-11-12-16-14-24-10-22-6-18-6-25-3-23v-39l4-27 6-23 9-24 8-17 9-15 13-18 13-16 7-7 8-5z" fill="#00F0A8"/>
<path transform="translate(1e3 1587)" d="m0 0h27l15 4 14 7 11 8 12 12 8 13 6 14 3 12v23l-4 16-5 12-7 11-11 12-12 9-16 8-15 4-15 1-15-2-19-7-14-9-14-14-9-14-5-12-4-17v-16l3-15 5-13 6-11 8-10 8-8 14-9 8-4 12-4z" fill="#FD5462"/>
<path transform="translate(1324,1587)" d="m0 0h25l16 4 15 8 12 9 8 8 9 14 7 16 3 13v21l-4 16-8 16-9 13-8 8-15 10-14 6-12 3h-24l-18-5-14-7-11-8-11-12-7-11-5-11-4-16v-23l2-12 5-13 6-11 7-9 9-9 10-7 14-7z" fill="#F0CA71"/>
<path transform="translate(690,1587)" d="m0 0h22l14 3 16 8 11 7 11 11 7 10 8 16 4 16v22l-4 17-8 16-9 12-7 7-15 10-13 6-13 4h-22l-14-3-12-5-11-6-10-8-7-7-9-14-7-16-3-14v-16l3-17 6-15 7-12 10-11 11-8 9-5 12-5 6-2z" fill="#03C7DC"/>
<path transform="translate(812,746)" d="m0 0h13l6 2 9 6 2 4h2l5 10 1 6v95h51l13 2 10 7 7 9 3 11v61l-3 12-7 9-6 5-7 3h-17l-6-3-9-8-5-9-1-6-1-31-47-1-15-1-10-6-7-8-3-7-1-5v-133l4-10 1-2h2l2-4 8-6z" fill="#527B85"/>
<path transform="translate(1020,1901)" d="m0 0h108l16 2 16 6 11 7 12 11 9 13 7 15 3 13 2 20h-238l-1-6 4-22 5-12 7-13 9-11 8-8 10-7 8-5 4-2z" fill="#A8D3DC"/>
<path transform="translate(1136,537)" d="m0 0h73l12 2 10 7 6 8 3 8v12l-6 12-7 7-6 3-15 2-65 1-1 89-6 12-8 7-10 4h-15l-9-5-7-7-5-12v-125l3-9 9-10 8-4 3-1z" fill="#527B85"/>
<path transform="translate(1086,438)" d="m0 0h127l78 1v8l-2 15-2 36h-201l-10-4-9-9-5-10v-14l4-9 7-8 8-5z" fill="#527A85"/>
<path transform="translate(915,1900)" d="m0 0h86l19 1 1 2-10 5-10 7-10 9-9 11-10 19-4 16-2 16v2l29-1h46l188 1v1h-616l-11-1v-2l79 1h153l2-24 4-14 7-13 9-11 8-8 14-9 11-5 10-2z" fill="#8DBBCA"/>
<path transform="translate(360,619)" d="m0 0h13l9 3 9 8 5 9 1 4v12l-6 12-10 13-5 11-2 8v19l4 12 5 9 10 13 4 10v11l-4 10-7 8-6 4-14 3-12-3-8-6-7-7-10-14-8-16-6-18-2-11-1-19 2-18 6-20 11-21 11-14 7-7z" fill="#0BD092"/>
<path transform="translate(1112,837)" d="m0 0h114l10 3 10 7 6 9 2 7v10l-4 9-4 6-6 5-4 3-12 3h-115l-9-2-8-5-8-9-4-9v-12l4-10 7-8 6-4 6-2z" fill="#547D87"/>
<path transform="translate(1110,928)" d="m0 0h116l10 3 8 5 7 10 2 5v16l-5 9-5 5-7 6-8 2h-124l-8-3-10-9-6-12v-11l3-9 5-8 11-7z" fill="#537C86"/>
<path transform="translate(927,745)" d="m0 0h99l11 4 8 6 6 8 2 5v12l-2 8-6 9-5 4-8 4-8 2h-110l-13-4-10-9-6-12v-12l5-12h2l2-4 8-6 6-2z" fill="#547D87"/>
<path transform="translate(996,838)" d="m0 0h13l6 2 9 6 7 9 1 2 1 9v99l-6 12-7 7-12 5h-10l-9-3-9-8v-2h-2l-5-12v-103l6-12 9-8z" fill="#527B85"/>
<path transform="translate(572,69)" d="m0 0 3 1-16 8-13 9-12 11-7 8-10 15-8 18-4 17-1 7-1 20-1 100v144l1 169v283l-1 107v314l1 463 1 114 2 18 3 12 6 15 6 11-1 2-6-10-2-6h-2l-5-11-4-17-2-11-1-22v-1671l2-26 4-18 6-15 6-13h2l2-6 4-6h2l2-4 4-5 8-7 14-10 13-7z" fill="#A8D3DC"/>
<path transform="translate(1289,542)" d="m0 0h1l3 17 4 16 11 30 14 29 7 12 11 16 8 11v2l2 1v21l-2 9-8 11-9 6-6 2h-13l-12-6-7-9-3-6-1-5z" fill="#537C86"/>
<path transform="translate(442,973)" d="m0 0h2l1 9 1 47 1 77v426l-1 191-1 87 1 4-1 22h-2l-1-6-1-38v-798z" fill="#8CBAC9"/>
<path transform="translate(572,69)" d="m0 0 3 1-16 8-13 9-12 11-7 8-10 15-8 18h-2l-2 10-2 12-1 12-1 56v1583l1 57 2 23 1 9h2l7 19 7 13-1 2-6-10-2-6h-2l-5-11-4-17-2-11-1-22v-1671l2-26 4-18 6-15 6-13h2l2-6 4-6h2l2-4 4-5 8-7 14-10 13-7z" fill="#8DBBCA"/>
<path transform="translate(849,598)" d="m0 0h54v54h-53l-1-1z" fill="#F7FAFB"/>
<path transform="translate(1203,746)" d="m0 0h15l11 6 7 8 4 9v13l-4 9-6 8-10 6-3 1h-14l-10-5-7-7-6-12v-12l3-8 5-8 11-7z" fill="#537C86"/>
<path transform="translate(1103,746)" d="m0 0h15l11 6 7 8 4 9v13l-4 9-6 8-10 6-3 1h-14l-10-5-7-7-6-12v-12l3-8 4-6 8-7z" fill="#537C86"/>
<path transform="translate(1012,647)" d="m0 0h13l10 4 8 7 6 12v11l-2 8-6 9-11 8-5 1h-13l-10-5-7-7-6-12v-12l4-10 7-8 9-5z" fill="#537C86"/>
<path transform="translate(1012,538)" d="m0 0h14l12 6 7 8 4 9v14l-5 10-5 6-10 6-3 1h-13l-9-4-9-8-6-12v-12l4-10 8-9 8-4z" fill="#537B86"/>
<path transform="translate(1203,647)" d="m0 0h12l8 3 9 6 6 9 2 5v14l-7 13-9 7-3 2-5 1h-13l-10-5-8-8-5-11v-12l3-8 6-8 6-5z" fill="#537C86"/>
<path transform="translate(1323,142)" d="m0 0h9l11 4 10 9 5 10 1 5v7l-6 12-8 8-9 5-4 1h-8l-9-4-9-7-6-9-2-8v-8l5-12 8-8 8-4z" fill="#8EBBCA"/>
<path transform="translate(717,142)" d="m0 0 12 1 10 6 8 9 3 7 1 11-4 10-10 11-9 5-4 1h-7l-10-4-10-9-5-8-2-8 1-10 5-10 7-7 8-4z" fill="#8DBBCA"/>
<path transform="translate(1535,779)" d="m0 0h3l1 2v1083l-2 25-2 2 1-31v-1078z" fill="#8DBBCA"/>
<path transform="translate(446,135)" d="m0 0 4 2-1 8-2 2 1 11v60l-1 16v142l-1 44-1 66-2 4-1-5-1-28v-291l2-17z" fill="#8DBBCA"/>
<path transform="translate(499,970)" d="m0 0h1l1 842 1 57 2 23 1 9h2l7 19 7 13-1 2-6-10-2-6h-2l-5-11-4-17-2-11-1-22v-417z" fill="#8DBBCA"/>
<path transform="translate(613,59)" d="m0 0h812l18 2 15 4 6 3-2 1-16-5-12-2-141-1h-535l-141 1-22 1v-2z" fill="#95C2CF"/>
<path transform="translate(572,69)" d="m0 0 3 1-16 8-13 9-12 11-7 8-10 15-8 18h-2l-2 10-2 12-1 12-1 56-1 242h-1l-1-236v-48l2-26 4-18 6-15 6-13h2l2-6 4-6h2l2-4 4-5 8-7 14-10 13-7z" fill="#8DBBCA"/>
<path transform="translate(499,1665)" d="m0 0h1l1 147 1 57 2 23 1 9h2l7 19 7 13-1 2-6-10-2-6h-2l-5-11-4-17-2-11-1-22v-192z" fill="#8FBCCB"/>
<path transform="translate(1308,336)" d="m0 0h13l13 1-3 3-3-1h-524v-1l438-1z" fill="#CAEEFE"/>
<path transform="translate(1390,716)" d="m0 0 2 1 1 4-1 3h-2v352h-1l-1-207v-148l2-1z" fill="#D0EFFD"/>
<path transform="translate(572,69)" d="m0 0 3 1-16 8-13 9-12 11-7 8-10 15-8 18h-2l-1 6-2 1 1-5 5-13 6-13h2l2-6 4-6h2l2-4 4-5 8-7 14-10 13-7z" fill="#94C1CE"/>
<path transform="translate(1510,103)" d="m0 0 4 2 7 10 11 21 5 19 2 10 1 32 1 9-2 6h-3l-1-50-2-12-5-16-8-16-7-11z" fill="#9DC9D5"/>
<path transform="translate(1308,336)" d="m0 0h13l13 1-3 3-3-1h-88l2-2z" fill="#CAEEFE"/>
<path transform="translate(1538,1842)" d="m0 0h1v22l-2 25-2 2 1-31 1-17z" fill="#95C2CF"/>
<path transform="translate(1537,165)" d="m0 0h2l1 32 1 9-2 6h-3v-2h2l-1-26z" fill="#8DBBCA"/>
<path transform="translate(572,69)" d="m0 0 3 1-16 8-13 9-4 2 4-6 8-6 13-7z" fill="#9BC7D3"/>
<path transform="translate(518,116)" d="m0 0v3l-7 15-2 5h-2l-1 6-2 1 1-5 5-13 5-10z" fill="#95C2CF"/>
<path transform="translate(527,1943)" d="m0 0 7 6 8 9 12 9-2 1-8-5-5-5-8-7-3-5z" fill="#9DC9D4"/>
<path transform="translate(1677,392)" d="m0 0 2 1-13 13-2-1 9-10z" fill="#D4ECF3"/>
<path transform="translate(1538,197)" d="m0 0h2l1 9-2 6h-3v-2h2z" fill="#8EBCCB"/>
<path transform="translate(518,116)" d="m0 0v3l-5 10-2-3 4-8z" fill="#99C6D2"/>
<path transform="translate(552,78)" d="m0 0m-1 1 1 2-8 8-2-1 7-8z" fill="#99C5D2"/>
<path transform="translate(1317,336)" d="m0 0 17 1-3 3-3-1-12-1z" fill="#C8EDFC"/>
</svg>
