<?xml version="1.0" encoding="UTF-8"?>
<svg version="1.1" viewBox="0 0 2048 2048" width="512" height="512" xmlns="http://www.w3.org/2000/svg">
<path transform="translate(168,341)" d="m0 0h1713l21 2 17 4 15 6 12 6 16 11 13 12 7 7 10 14 8 14 8 20 4 17 2 22v1028l-2 21-4 17-6 16-9 17-8 11-12 14-13 11-14 9-16 8-15 5-20 4-9 1h-1728l-19-3-16-5-16-7-15-9-11-9-8-7-7-8-10-13-10-18-7-19-4-19-1-9v-1046l3-19 5-17 7-15 6-11 9-12 10-12 8-7 15-11 14-8 18-7 17-4z" fill="#24A5DC"/>
<path transform="translate(237,511)" d="m0 0h278l14 3 13 5 12 7 8 7 9 13 6 13 3 17v215l-2 13-7 16-8 10-9 9-13 8-14 5-13 2h-257l-25-1-15-3-13-6-10-7-9-9-8-13-4-11-2-15-1-13v-191l2-21 5-13 9-14 11-11 14-9 12-4z" fill="#F6C357"/>
<path transform="translate(1593,1297)" d="m0 0h21l19 4 18 8 9 5 12 9v2l4 2 7 7 5 7 5-3 7-8 9-9 14-10 16-8 17-5 6-1h24l14 3 15 5 15 8 12 9 12 12 7 10 9 17 6 21 1 5v24l-3 16-7 17-8 14-11 13-7 7-15 10-15 7-11 4-15 3h-17l-18-3-19-7-14-8-10-8-12-12-4-6-4 1-9 11-11 10-14 9-8 4-16 6-16 3h-17l-16-3-17-6-18-10-10-9-7-6-11-15-8-16-5-18-2-17 1-19 5-19 8-16 7-11 9-11 13-10 11-7 11-5 16-5z" fill="#F6C357"/>
<path transform="translate(1766,444)" d="m0 0h16l10 4 10 8 14 14 7 8 14 17 12 17 11 17 13 23 10 22 10 26 6 21 6 24 4 24 3 31v33l-3 32-6 33-6 22-8 24-11 26-11 22-12 20-8 12-13 18-11 13-9 10-17 17-10 6-7 2h-11l-12-5-10-9-5-9-2-9v-7l4-11 8-11 18-18 11-14 11-15 8-13 9-16 11-23 9-25 6-23 4-20 3-28v-32l-3-28-5-27-7-25-8-21-9-20-14-24-14-20-11-13-7-8-14-15-7-10-3-9v-9l4-11 7-9 10-7z" fill="#2A5474"/>
<path transform="translate(1593,1297)" d="m0 0h21l19 4 18 8 9 5 12 9v2l4 2 7 7 6 9-9 19-4 12-3 19v14l3 17 6 17 7 14-2 4-9 11-11 10-14 9-8 4-16 6-16 3h-17l-16-3-17-6-18-10-10-9-7-6-11-15-8-16-5-18-2-17 1-19 5-19 8-16 7-11 9-11 13-10 11-7 11-5 16-5z" fill="#EC3D4A"/>
<path transform="translate(1667,511)" d="m0 0h8l13 4 10 8 13 14 15 20 13 21 11 21 8 20 7 21 6 26 4 28 1 17v11l-1 18-4 28-6 25-9 27-9 20-10 19-9 14-13 18-9 11-7 8-9 7-9 4-5 1h-8l-11-4-8-6-6-7-4-8-1-5v-9l3-10 6-9 13-15 12-17 10-17 10-23 6-18 4-17 3-22v-35l-4-29-6-22-8-20-8-16-9-15-12-16-11-13-7-10-2-5-1-11 2-9 6-10 7-7 10-5z" fill="#2A5474"/>
<path transform="translate(954,1092)" d="m0 0h210l9 2 10 6 8 10 4 11v12l-6 12-8 9-12 6-6 1h-210l-9-2-10-6-7-8-5-10-1-12 4-13 7-9 9-6 6-2z" fill="#2A5474"/>
<path transform="translate(613,1092)" d="m0 0h209l10 2 9 6 8 9 4 10v15l-6 12-5 6-9 6-5 2-7 1h-206l-12-2-10-6-8-9-4-8-1-5v-10l4-11 6-8 6-5 9-4z" fill="#2A5474"/>
<path transform="translate(1296,1092)" d="m0 0h209l12 3 8 6 6 7 4 8 1 3v14l-4 10-11 12-10 5-8 1h-108l-105-1-8-3-9-6-6-8-4-10v-14l4-10 9-10 6-4 6-2z" fill="#2A5474"/>
<path transform="translate(272,1092)" d="m0 0h209l12 3 8 6 6 7 4 8 1 4v13l-4 10-11 12-10 5-13 1-208-1-9-3-9-7-6-9-3-8v-15l6-12 8-8 8-4z" fill="#2A5474"/>
<path transform="translate(203,1433)" d="m0 0h173l12 2 9 6 8 9 4 8 1 5v9l-4 11-6 8-8 7-10 4-17 1h-155l-16-2-10-6-6-5-6-10-2-7v-10l3-10 6-9 9-7 7-3z" fill="#2A5474"/>
<path transform="translate(517,1433)" d="m0 0h166l12 2 10 6 6 7 5 10 1 3v12l-4 11-8 10-9 6-7 2-21 1-162-1-9-3-9-7-7-9-3-8v-15l4-10 9-10 9-5z" fill="#2A5474"/>
<path transform="translate(1565,614)" d="m0 0h9l10 3 11 7 16 16 10 14 9 17 5 15 3 15 1 6v20l-4 20-5 15-10 19-9 12-9 10-10 9-14 7-10 1-9-2-10-6-9-10-4-10v-14l4-10 7-9h2v-2l7-6 7-10 5-13 1-5v-14l-4-13-6-10-11-12-8-9-4-9v-15l7-14 9-8 8-4z" fill="#2A5474"/>
<path transform="translate(672,1228)" d="m0 0h104l16 1 9 3 9 7 6 9 3 7 1 5v7l-4 11-7 9-7 6-6 3-5 1-21 1-127-1-11-4-9-7-7-11-2-8v-8l4-13 7-9 9-6 8-2z" fill="#2A5474"/>
<path transform="translate(1093,1228)" d="m0 0h31l16 3 9 6 7 8 4 9 1 12-2 8-6 10-7 7-10 5-14 2h-27l-12-2-10-5-6-5-7-11-2-7v-11l4-11 7-9 9-6 7-2z" fill="#2A5474"/>
<path transform="translate(921,1228)" d="m0 0h32l16 3 9 6 8 9 4 11v12l-4 10-7 9-9 6-9 3-11 1h-24l-14-2-10-5-9-9-5-11-1-11 2-9 6-10 9-8 10-4z" fill="#2A5474"/>
</svg>
