<?xml version="1.0" encoding="UTF-8"?>
<svg version="1.1" viewBox="0 0 2048 2048" width="512" height="512" xmlns="http://www.w3.org/2000/svg">
<path transform="translate(1772,239)" d="m0 0h28l19 3 15 4 18 7 17 9 15 11 14 12 10 11 11 15 9 16 7 16 5 16 4 23 13 111 25 215 18 154 17 147 22 187 7 59h2v64l-2 2-5 19-7 18-8 15-11 16-10 11-1 2h-2v2l-8 7-10 8-14 9-15 8-16 6-21 5-52 7h-7v183l-1 28-3 19-5 18-9 21-10 17-11 14-18 18-18 13-21 11-24 8-15 3-22 2h-1549l-26-3-19-5-19-8-15-8-15-11-12-11-9-9-13-17-9-16-8-18-8-29v-947l4-15 5-16 7-17 13-21 5-7h2l2-4 11-12 8-7 15-11 16-9 16-7 21-6 12-2 12-1h1558l20 2 21 5 15 6 16 8 15 10 11 9 7 6 7 8 9 11 11 17 9 19 7 23 3 20 1 22v466l-1 16-5 10-5 6-9 5-6 2h-11l-10-4-8-7-6-12-1-5-1-496-4-18-7-17-7-11-9-10-5-5-10-8-12-7-16-6-10-2-10-1h-1556l-14 2-16 5-15 8-11 9-5 4-9 11-8 13-6 14-3 12-2 23v894l2 21 5 16 8 16 8 11 5 6 11 9 13 8 11 5 14 4 15 2h1548l19-2 16-5 16-8 13-10 9-9 9-13 7-14 4-13 2-12 1-304 4-11 6-8 10-6 3-1h15l10 4 8 8 4 8 2 11v30l20-2 30-4 17-5 17-9 13-10 8-8 7-10 8-15 5-16 2-11v-23l-12-104-30-258-19-162-17-147-17-145-9-77-4-18-6-15-9-15-12-13-14-10-16-8-17-5-7-1h-23l-293 34-412 48-214 25-241 28-300 35-62 7-23 4-12 4-14 7-13 10-16 16-8 4-4 1h-13l-10-4-6-5-6-10-2-6v-10l5-12 9-10 1-2h2v-2l8-7 14-11 18-11 18-8 17-5 24-4 1064-124 447-52z"/>
<path transform="translate(280,945)" d="m0 0h203l17 2 16 5 15 8 14 11 10 11 9 14 6 15 3 12 1 7v147l-3 17-5 13-6 12-10 13-8 8-8 6-14 8-16 6-18 3h-207l-14-2-15-5-15-8-9-7-7-6-9-11-8-13-5-11-4-15-1-8v-147l3-15 5-14 9-16 8-10 8-7 7-6 14-8 12-5 13-3zm5 61-11 2-9 6-7 8-4 9-1 8v133l2 9 6 10 11 8 5 2 7 1h200l10-3 8-5 7-9 3-7 1-6v-137l-3-10-6-9-8-6-8-3-6-1z"/>
<path transform="translate(218,1523)" d="m0 0h649l9 2 9 6 7 8 3 8v13l-4 10-7 8-11 5-7 1h-648l-10-3-10-9-5-9-1-4v-10l4-11 7-8 8-5z"/>
<path transform="translate(1530,817)" d="m0 0h13l10 4 7 6 6 9 10 23 9 25 7 24 6 31 3 29v48l-2 22-5 28-6 24-10 30-11 25-6 10-7 7-13 5h-8l-10-3-9-7-6-10-2-8 1-10 7-17 10-25 7-24 5-24 3-25v-44l-3-26-6-28-11-33-11-25-2-8 1-10 4-9 7-8 6-4z"/>
<path transform="translate(239,1362)" d="m0 0h223l24 1 10 4 6 5 6 10 2 6v10l-3 9-7 9-10 6-4 1-58 1h-198l-15-1-9-4-7-6-5-9-2-5v-11l4-11 6-7 10-6 3-1z"/>
<path transform="translate(1016,1362)" d="m0 0h160l81 1 9 4 8 7 4 6 2 6v15l-5 10-8 8-11 4-33 1h-220l-17-1-8-3-10-9-4-8-1-3v-14l4-9 7-8 9-5 2-1z"/>
<path transform="translate(1403,1362)" d="m0 0h155l84 1 9 4 8 7 5 8 2 7v8l-4 11-6 8-10 6-4 1-33 1h-219l-19-1-9-4-8-7-5-9-1-4v-12l4-10 7-8 12-6z"/>
<path transform="translate(628,1362)" d="m0 0h154l89 1 10 4 8 7 6 12v14l-6 12-8 7-10 4-41 1h-210l-19-1-10-4-9-9-4-9-1-4v-8l4-11 5-7 11-7 3-1z"/>
<path transform="translate(1415,875)" d="m0 0h13l10 4 7 6 7 11 9 23 7 24 4 23 1 12v28l-2 20-5 23-8 24-9 20-5 7-9 6-6 2h-15l-9-4-7-6-5-9-2-8 1-10 10-25 6-23 3-21v-20l-2-17-4-17-5-15-8-20-1-10 2-9 7-11 9-6z"/>
<path transform="translate(354,1073)" d="m0 0h61l11 2 8 5 8 9 4 11v8l-4 11-6 8-10 6-15 2h-60l-11-2-8-5-8-9-4-11v-7l3-10 5-8 10-7 5-2z"/>
<path transform="translate(1299,933)" d="m0 0h16l10 5 5 5 6 9 6 16 2 10 1 16-2 17-5 16-6 12-9 8-11 4h-10l-11-4-6-5-7-11-2-8 1-10 5-13 1-9-2-9-5-15v-7l3-10 6-8 7-6z"/>
</svg>
