<?xml version="1.0" encoding="UTF-8"?>
<svg version="1.1" viewBox="0 0 1600 1600" width="512" height="512" xmlns="http://www.w3.org/2000/svg">
<path transform="translate(213,42)" d="m0 0h566l18 2 18 5 18 8 16 10 14 12 8 8 11 15 8 14 6 14 5 18 2 15 1 42 22 14 42 26 24 15 21 13 24 15 21 13 24 15 26 16 48 30 26 16 24 15 21 13 19 12 23 14 19 12 24 15 23 14 19 12 21 13 24 15 21 13 24 15 26 16 12 8 7 8 1 3v12l-4 8-6 5-3 1-20 1h-132v313l41-1h49l39 1 10 4 8 7 5 8 2 7 1 55v111l-1 221-4 11-9 10-12 5-550 1-1 81-3 19-6 19-8 16-9 14-13 15-10 9-15 10-15 8-18 6-20 4-13 1h-554l-20-2-17-4-15-6-15-8-16-12-17-17-11-16-8-16-5-13-4-18-2-23v-1245l1-18 4-21 7-19 8-15 7-10 9-11 9-9 13-10 15-9 11-5 15-5 15-3zm691 560-1 1v312l1 1h53l1-1v-312l-1-1zm162 0-2 1v313h154l1-1v-312l-3-1z" fill="#07B287"/>
<path transform="translate(228,83)" d="m0 0h49l35 1 4 6 11 28 9 21 7 11 7 7 14 7 11 2h250l12-3 11-6 9-9 8-15 16-40 5-10h72l25 1 14 3 15 6 16 10 15 15 9 14 6 14 3 14 1 7v35l2 1-11 6-17 11-21 13-18 11-19 12-24 15-21 13-26 16-24 15-19 12-18 11-24 15-21 13-19 12-18 11-19 12-26 16-24 15-26 16-19 12-47 29-26 16-24 15-26 16-18 11-21 13-11 8-4 5-1 2v14l3 5v2l12 6 7 1 17-1h119l5 1v470l-5 2-61 1-10 4-10 9-4 8-1 16v71l3 10 6 8 9 6 5 2 7 1 429 1v-104l1-1h675v-30h1l-1 252-4 11-9 10-12 5-550 1-32 1-9-1v73l-2 12-1 5h-2l-1 8-6 16-3 1-1 5-5 5-3 5-7 6-1 2-5 3-14 9-15 6-14 3-19 1h-542l-19-2-14-3-15-8-6-4-13-13-6-5-4-7-3-7-5-12v-2h-2v-4h-2l-1-10-1-1-1-11v-588l1-666 2-19 5-15 8-15 9-11 10-10 14-9 11-5 19-5z" fill="#4E94D3"/>
<path transform="translate(1479,1077)" d="m0 0h1l-1 252-4 11-9 10-12 5-550 1-32 1-9-1v73l-2 12-1 5h-2l-1 8-6 16-3 1-1 5-5 5-3 5-7 6-1 2-5 3-14 9-15 6-14 3-19 1h-542l-19-2-14-3-15-8-6-4-13-13-6-5-4-7-3-7-5-12v-2h-2l-2-15-1-15v-169h1l2 18 2 13 3 21 3 10 6-8v-2l5-3 4-1 2-7 5-1 3-3 18-6 5-1h4l14-3 16-2 3 1h7v2h11l18 6 6 1v2l10 2 7 3 10 3 1 1 14 2 3-2 6-1h27l25 1 21-2v-2h41l35-1 73-1h70l48 1 24 1 11 2 7 3h9l3 2 12 3 8 4 9 3 7 3 13 4 5 5 5-3 10 1 2-6 3 2 6-1 4-1v3h2l1 10h2l-1-14-1-38v-66l1-104 1-1h675z" fill="#CBD9E3"/>
<path transform="translate(213,42)" d="m0 0h566l18 2 18 5 18 8 16 10 14 12 8 8 11 15 8 14 6 14 5 18 2 15v41l-18-6h-8l-12 4h-3l-1-35-3-17-5-14-8-14-11-12-9-8-15-9-16-6-11-2-25-1h-72l-6 14-12 30-8 17-9 10-8 6-8 4-10 2h-250l-14-3-11-6-9-9-8-14-11-27-9-22-1-1-35-1h-49l-19 1-19 5-16 8-11 8-10 10-9 13-7 15-4 16-1 13-1 666v588l1 11 1 1v10h2v4h2l7 16 6 12 13 12 5 4v2l5 2 12 7 4 2 20 4 13 1h542l19-1 14-3 15-6 14-9 2-2h3l2-4 7-6 2-4 5-5 1-4 2-1 7-20 1-4h2l1-8 1-9 1-73h40v81l-3 19-6 19-8 16-9 14-13 15-10 9-15 10-15 8-18 6-20 4-13 1h-554l-20-2-17-4-15-6-15-8-16-12-17-17-11-16-8-16-5-13-4-18-2-23v-1245l1-18 4-21 7-19 8-15 7-10 9-11 9-9 13-10 15-9 11-5 15-5 15-3z" fill="#3E3E59"/>
<path transform="translate(132,1254)" d="m0 0h1l2 18 2 13 3 21 3 10 6-8v-2l5-3 4-1 2-7 5-1 3-3 18-6 5-1h4l14-3 16-2 3 1h7v2h11l18 6 6 1v2l10 2 7 3 10 3 1 1 14 2 3-2 6-1h27l25 1 21-2v-2h41l35-1 73-1h70l48 1 24 1 11 2 7 3h9l3 2 12 3 8 4 9 3 7 3 13 4 5 5 5-3 10 1 2-6 3 2 6-1 4-1v3h2l1 10h2v-14h1l2 19 3 7 5 5 6 3 18 2 22 2 42 1v1l-31 1-9-1v73l-2 12-1 5h-2l-1 8-6 16-3 1-1 5-5 5-3 5-7 6-1 2-5 3-14 9-15 6-14 3-19 1h-542l-19-2-14-3-15-8-6-4-13-13-6-5-4-7-3-7-5-12v-2h-2l-2-15-1-15z" fill="#8EC8ED"/>
<path transform="translate(803,998)" d="m0 0 676 1 1 11v67l-1 30-676 1z" fill="#59658F"/>
<path transform="translate(551,602)" d="m0 0h135l10 1 1 1v469l-2 2-37 1h-92l-23-1-1-425v-46l1-1z" fill="#4F94D3"/>
<path transform="translate(957,915)" d="m0 0 1 2 102-1h260l46-1h49l39 1 10 4 8 7 5 8 2 7 1 68h-1v-11h-675l-1-1v-60h2l2-6 8-9 10-5 12-2z" fill="#CBD9E4"/>
<path transform="translate(805,602)" d="m0 0h99v314l-67 1-12 2-10 5-7 8-3 6h-1l-1-11v-323z" fill="#4F94D3"/>
<path transform="translate(306,1432)" d="m0 0h384l8 2 8 7 4 6v14l-7 9-8 4h-399l-4-2-7-8-2-4v-13l4-7 9-7z" fill="#3E3F5A"/>
<path transform="translate(311,602)" d="m0 0h119l5 1v119l-2 3v-7l-2-1-1-2-2-3-1 7h-2l-1 10-3 4-1-1-2 3v-2h-2l-1-1-1 3h-2v-2l-6 5-2-4h-2v2l-4 1-1 3h-2v2l-2 2-2 4-2-2-2-65-149-1-8-4-5-6-2-6v-11l4-6 7-6 32-21 25-15 3-2z" fill="#366BA1"/>
<path transform="translate(869,317)" d="m0 0h22l14 4 11 5v2l5 1 10 9 5 5 7 11v4h2l3 9 3 16-1 15-6 18-8 13-9 10-8 6-15 7-16 4h-15l-14-3-12-5-11-8-5-5-8-9-8-16-4-15v-19l3-12 8-16 7-9 8-8h3v-2l3-2h3v-2l15-6 7-1z" fill="#FEDE87"/>
<path transform="translate(551,602)" d="m0 0h135l10 1 1 1v77l-1 57-1 8-1-2-3-1v-7h-4l-1 2h-5l-1-2-1 8-4 2v-6l-5 4-5 1-1 2h-2v2l-2 1-4 11-2 9-1 3-1 11-2-2-1-9v-93h-79l-27-1-1-29v-46l1-1z" fill="#366BA1"/>
<path transform="translate(861,602)" d="m0 0h43v314h-41l-1-1z" fill="#3E3E58"/>
<path transform="translate(1128,1245)" d="m0 0h271l8 3 5 5 3 4 2 7-1 9-6 9-9 5-34 1h-232l-11-2-6-4-5-6-2-6v-8l5-10 6-5z" fill="#596590"/>
<path transform="translate(1137,1165)" d="m0 0h254l11 1 8 5 4 5 2 4v13l-4 6-8 7-2 1-19 1h-254l-9-4-7-8-2-6v-7l3-8 9-8 3-1z" fill="#59658F"/>
<path transform="translate(696,681)" d="m0 0h1v138l-1 192h-1l-1-14-3-3v-2l-3 3 2 3-2 2-2 1-1 6h-1l-1-6h-3l-2-5h-6l-1-5-4-1v-2l-8 4-4-2 1 3h-2v-2l-4-2v-207h1l2-12 4-15 3-6h2v-2h2l1-3 6-2 4-2v6l3-2 1-8 2-1 1 2 9-1 1 7 2 1 1-9z" fill="#5184B6"/>
<path transform="translate(388,707)" d="m0 0h1l1 39 1-1 2-3h2v-2l5-4h2v-2h2l2 3 4-4h2v2h2v-6l2 1v3h2l2-2 1 1 2-3 2-10h2v-8l4 3 2 4 1 7v240l-2-1 1 14-2 3-1-3h-2l-1 9h-2l-2 8-3-2-1-3-2 3-2-10-5 1-6-3-3-6-5 1h-2l-1 2-4-5-1-17z" fill="#5183B6"/>
<path transform="translate(926,1174)" d="m0 0h15l12 3 16 8 8 7 9 12 5 12 2 7v23l-4 12-6 11-9 10-11 8-14 6-11 2h-9l-14-3-12-5-9-7-5-5-6-7-7-14-3-14v-13l4-15 7-13 9-10 13-9 14-5z" fill="#D15A6D"/>
<path transform="translate(804 1e3)" d="m0 0h674v5l-5 3h-2l-4 4h-21l-12-2-13-1h-212l-7 1-5-1-3 1h-14l-3-1-120 1h-117l-6-1-2 1-23-1h-73l-3-1-4 1-10-2-4-1h-8l-3-3z" fill="#50577C"/>
<path transform="translate(388,707)" d="m0 0h1l1 39 1-1 2-3h2v-2l5-4h2v-2h2l2 3 4-4h2v2h2v-6l2 1v3h2l2-2 1 1 2-3 2-10h2v-8l4 3 2 4 1 7v170h-1l-1-83-1-3-2 4v-2h-2l-3 18v3h-2v2l-2 1-3 9-1 1-1 5h-4l-1 5-1 2-5 1-2-1v-2l-3 3-3 1-2 6-1 5h-3l-1 3-1-7z" fill="#437AB1"/>
<path transform="translate(696,681)" d="m0 0h1v138l-1 18-3 4-5 2-5 3-6 2-2 5 2 1-5 1-3-2-3 1-3 4h-3l-4 7-2 9-1 2-1 9-2-2v-101h1l2-12 4-15 3-6h2v-2h2l1-3 6-2 4-2v6l3-2 1-8 2-1 1 2 9-1 1 7 2 1 1-9z" fill="#437AB2"/>
<path transform="translate(805,602)" d="m0 0h56l1 2v76h-55l-3-1-1-75z" fill="#366BA0"/>
<path transform="translate(1413,1178)" d="m0 0h2l1 2v13l-4 6-8 7-2 1-19 1h-254l-9-4-7-8-1-9 1 3 2 1 5 3 5 2 38-3h50l25 1h95l12-1h35l10-1 11 1 9-1 1-2h1z" fill="#4F577C"/>
<path transform="translate(1414,1269)" d="m0 0h1v6l-5 7-9 5-34 1h-232l-11-2-6-4-4-5 1-4 8 3 5 1 7-2 18-2h36l15 1 25 1 11 1h88l8-1 18-1 45-1v2l9-1h4z" fill="#505A80"/>
<path transform="translate(805 1e3)" d="m0 0h673v2l-15 1h-635l-18-1-5-1z" fill="#3E3E58"/>
<path transform="translate(1412,1195)" d="m0 0 1 3-7 7-4 2-19 1h-254l-5-3v-1h9l4 1 1-1 9-1 3-1h243l2 1v-2l11-1 4-2z" fill="#424866"/>
<path transform="translate(1404,1281)" d="m0 0h4l-1 3-3 2h-276v-1l18-3h4 233l10 2 6-2z" fill="#3E3E58"/>
<path transform="translate(858,1355)" d="m0 0h45v1l-31 1-9-1v73l-2 12h-1v-9l-6-1-6-4-2-4 1-6 1-3h-2l2-5 2-9 1-3h1l1-6 2 2 4-4v-30l1-3z" fill="#508CC7"/>
<path transform="translate(852,134)" d="m0 0 2 2 5 14 3 17v35l2 1-11 3-8 5-2-1 5-5h2l2-4 3-1v2h2l-1-4-2-4 1-22 2-9-1-14-4-12z" fill="#4177AF"/>
<path transform="translate(1404,1281)" d="m0 0h4l-1 3-3 2h-11l4-4z" fill="#414360"/>
<path transform="translate(852,134)" d="m0 0 2 2 5 14 1 9h-2l-3-13-3-9z" fill="#3D73AA"/>
<path transform="translate(432,953)" d="m0 0h1l1 12v13l-2-1-1-14z" fill="#4F95D4"/>
<path transform="translate(1124,1204)" d="m0 0h9l3 3h-10z" fill="#40405B"/>
</svg>
