<?xml version="1.0" encoding="UTF-8"?>
<svg version="1.1" viewBox="0 0 2048 2048" width="512" height="512" xmlns="http://www.w3.org/2000/svg">
<path transform="translate(677,64)" d="m0 0h23l18 3 16 5 19 9 16 11 13 12 273 273 10 13 8 14 7 15 5 17 3 20v13l-2 19-5 19-8 18-9 14-8 10-14 15-93 93h-2l-2 4h-2l-2 4h-2l-2 4-27 27-7 6-1 2h330l12 2 21 7 16 8 12 8 14 12 9 10 9 13 9 17 6 18 3 15 7-25 8-18 10-16 9-10 1-2h2l2-4 8-7 14-10 17-9 18-6 14-4-18-4-20-8-17-10-11-9-14-14-12-17-9-19-6-19-2-11v-419l5-21 9-21 10-16 9-10 5-6 8-7 14-10 17-9 18-6 8-2 9-1h416l16 3 19 7 19 10 12 9 12 11 11 14 8 13 7 15 5 17 2 11 1 13v388l-1 18-3 15-6 18-8 16-9 13-9 10-10 10-13 9-10 6-17 7-14 4-11 2 24 7 17 7 16 10 10 8 10 9 11 14 8 13 7 15 5 17 2 11 1 13v388l-1 18-3 15-6 18-8 16-9 13-9 10-10 10-13 9-10 6-17 7-14 4-11 2 24 7 17 7 16 10 10 8 10 9 11 14 8 13 7 15 5 17 2 11 1 13v388l-1 18-4 19-7 19-9 16-10 13-15 15-13 9-10 6-20 8-17 4-7 1-19 1h-376l-21-1-20-4-16-6-15-8-11-8-10-9-5-5-9-10-10-16-7-15-7-21-2-9-3 17-6 17-8 16-9 13-9 10-10 10-13 9-10 6-20 8-17 4-7 1-19 1h-376l-21-1-20-4-16-6-15-8-11-8-10-9-5-5-9-10-10-16-7-15-7-21-2-9-3 17-6 17-8 16-9 13-9 10-10 10-13 9-10 6-20 8-17 4-7 1-19 1h-376l-21-1-20-4-16-6-15-8-11-8-10-9-10-10-12-17-9-19-6-19-2-11v-419l5-21 9-21 10-16 9-10 5-6 8-7 14-10 17-9 18-6 14-4-18-4-20-8-17-10-11-9-13-13-11-15-9-17-8-24-2-11v-419l5-21 9-21 10-16 9-10 5-6 8-7 14-10 17-9 18-6 16-3h299l-7-8-145-145-11-14-9-15-6-14-5-17-2-12-1-18 2-18 4-17 7-17 9-17 13-16 5-5 6-7 7-6 5-6 7-6 5-6 7-6 5-6 7-6 5-6 7-6 5-6 7-6 5-6 7-6 5-6 7-6 5-6 7-6 5-6 7-6 5-6 7-6 5-6 7-6 5-6 7-6 5-6 7-6 5-6 7-6 5-6 7-6 5-6 7-6 5-6 7-6 5-6 7-6 5-6 7-6 5-6 7-6 5-6 7-6 5-5 11-10 10-7 14-8 15-6 15-4zm25 1163m640 0m-640 3-3 19-6 17-8 16-9 13-9 10-1 3-4 2-8 7-14 9-16 8-20 6-16 2v1l23 6 19 7 16 9 12 9 11 10 11 14 8 13 7 15 5 17 2 12 2-1 7-25 8-18 10-16 9-10v-2h2l5-5 10-9 16-10 15-7 30-9v-1l-17-3-15-5-16-8-14-9-11-10h-2l-2-4-8-9-10-15-8-17-7-21-3-11zm640 0-3 19-6 17-8 16-9 13-9 10-1 3-4 2-8 7-14 9-16 8-20 6-16 2v1l23 6 19 7 16 9 12 9 11 10 11 14 8 13 7 15 5 17 2 12 2-1 7-25 8-18 10-16 9-10v-2h2l5-5 10-9 16-10 15-7 30-9v-1l-17-3-15-5-16-8-14-9-11-10h-2l-2-4-8-9-10-15-8-17-7-21-3-11z" fill="#F19B97"/>
<path transform="translate(677,64)" d="m0 0h23l18 3 16 5 19 9 16 11 13 12 273 273 10 13 8 14 7 15 5 17 3 20v13l-2 19-5 19-8 18-9 14-8 10-14 15-93 93h-2l-2 4h-2l-2 4h-2l-2 4-27 27-7 6-1 3-6 4-119 119-8 7-14 10-17 9-24 8-9 2-1 64v304h-1l-3 17-6 17-8 16-9 13-9 10-5 5-9 8-14 9-16 8-20 6-11 2 24 7 17 7 18 11 10 9 8 7 11 14 8 13 7 15 5 17 2 15 1 2v410h-2v9l-4 16-5 13-8 16-12 16-15 15-13 9-10 6-20 8-17 4-7 1-19 1h-376l-21-1-20-4-16-6-15-8-11-8-10-9-10-10-12-17-9-19-6-19-2-11v-419l5-21 9-21 10-16 9-10 5-6 8-7 14-10 17-9 18-6 14-4-18-4-20-8-17-10-11-9-13-13-11-15-9-17-8-24-2-11v-419l5-21 9-21 10-16 9-10 5-6 8-7 14-10 17-9 18-6 16-3h299l-7-8-145-145-11-14-9-15-6-14-5-17-2-12-1-18 2-18 4-17 7-17 9-17 13-16 5-5 6-7 7-6 5-6 7-6 5-6 7-6 5-6 7-6 5-6 7-6 5-6 7-6 5-6 7-6 5-6 7-6 5-6 7-6 5-6 7-6 5-6 7-6 5-6 7-6 5-6 7-6 5-6 7-6 5-6 7-6 5-6 7-6 5-6 7-6 5-6 7-6 5-6 7-6 5-6 7-6 5-6 7-6 5-6 7-6 5-5 11-10 10-7 14-8 15-6 15-4z" fill="#89E04D"/>
<path transform="translate(1456,64)" d="m0 0h416l16 3 19 7 19 10 12 9 12 11 11 14 8 13 7 15 5 17 2 11 1 13v388l-1 18-3 15-6 18-8 16-9 13-9 10-10 10-13 9-10 6-17 7-14 4-11 2 24 7 17 7 16 10 10 8 10 9 11 14 8 13 7 15 5 17 2 11 1 13v388l-1 18-3 15-6 18-8 16-9 13-9 10-10 10-13 9-10 6-17 7-14 4-11 2v1h-419v-1l-15-3-15-5-16-8-14-9-11-10-5-5-8-9-10-15-8-17-7-21-1-5v-425l6-22 8-18 10-16 9-10 1-2h2l2-4 8-7 14-10 17-9 18-6 14-4-18-4-20-8-17-10-11-9-14-14-12-17-9-19-6-19-2-11v-419l5-21 9-21 10-16 9-10 5-6 8-7 14-10 17-9 18-6 8-2z" fill="#F19B97"/>
<path transform="translate(1453,1343)" d="m0 0h294l130 1 26 8 16 8 11 7 10 8 10 9 11 14 8 13 7 15 5 17 2 11 1 13v388l-1 18-4 19-7 19-9 16-10 13-15 15-13 9-10 6-20 8-17 4-7 1-19 1h-376l-21-1-20-4-16-6-15-8-11-8-10-9-5-5-9-10-10-16-7-15-7-21-2-9-1 7h-1v-16h2v-104l-1-297-1-1v-13h1l1 6 7-25 8-18 10-16 9-10 1-2h2l2-4 8-7 11-8 14-8 14-6z" fill="#FCD06A"/>
<path transform="translate(677,64)" d="m0 0h23l18 3 16 5 19 9 16 11 13 12 273 273 10 13 8 14 7 15 5 17 3 20v13l-2 19-5 19-8 18-9 14-8 10-14 15-93 93h-2l-2 4h-2l-2 4h-2l-2 4-27 27-7 6-1 3-6 4-119 119-8 7-14 10-17 9-24 8-9 2h-17l-17-2-18-4-18-6-17-9-12-9-7-6v-2l-4-2-111-111-7-6-3-2-3-5-149-149-11-14-9-15-6-14-5-17-2-12-1-18 2-18 4-17 7-17 9-17 13-16 5-5 6-7 7-6 5-6 7-6 5-6 7-6 5-6 7-6 5-6 7-6 5-6 7-6 5-6 7-6 5-6 7-6 5-6 7-6 5-6 7-6 5-6 7-6 5-6 7-6 5-6 7-6 5-6 7-6 5-6 7-6 5-6 7-6 5-6 7-6 5-6 7-6 5-6 7-6 5-6 7-6 5-6 7-6 5-6 7-6 5-5 11-10 10-7 14-8 15-6 15-4z" fill="#89E04E"/>
<path transform="translate(1839,704)" d="m0 0h38l26 8 16 8 11 7 10 8 10 9 11 14 8 13 7 15 5 17 2 11 1 13v388l-1 18-3 15-6 18-8 16-9 13-9 10-10 10-13 9-10 6-17 7-14 4-11 2v1h-419v-1l-15-3-15-5-16-8-14-9-11-10-5-5-8-9-10-15-8-17-7-21-1-5v-425l6-22 8-18 10-16 9-10 1-2h2l2-4 8-7 14-10 17-9 24-8z" fill="#78A0D4"/>
<path transform="translate(902,704)" d="m0 0h330l12 2 21 7 16 8 12 8 14 12 9 10 9 13 9 17 6 18 3 15h1v418h-1l-3 17-6 17-8 16-9 13-9 10-5 5-9 8-14 9-16 8-20 6-11 2v1l-194 1-226-1-4-2-14-3-20-8-17-10-11-9-6-5-7-8-11-15-8-15-7-19-4-14-1-148v-160l1-64 6-2 20-6 16-7 15-9 10-8 15-14 112-112z" fill="#FEE497"/>
<path transform="translate(175,704)" d="m0 0h299l7 5 116 116 2 1v2l4 2 9 8 17 10 14 6 17 5 16 3 28 2v368h-1l-3 17-6 17-8 16-9 13-9 10-5 5-9 8-14 9-16 8-20 6-11 2 4 2-424-1v-1l-18-4-20-8-17-10-11-9-13-13-11-15-9-17-8-24-2-11v-419l5-21 9-21 10-16 9-10 5-6 8-7 14-10 17-9 18-6z" fill="#78A0D4"/>
<path transform="translate(1887,68)" d="m0 0 7 1 15 6 17 9 12 9 12 11 11 14 8 13 7 15 5 17 2 11 1 13v388l-1 18-3 15-6 18-8 16-9 13-9 10-10 10-13 9-10 6-17 7-14 4-11 2v1l-34 1h-390l4-2-18-4-20-8-17-10-11-9-14-14-12-17-9-19-4-12v-3l20 1h11l17 1h37l92-1h66l186-1 21-4 14-6 16-8 14-10h2l2-4h2l2-4h2l2-4h2l2-4 10-14 9-17 6-17 2-7 2-17 1-26v-340l-1-38z" fill="#DD686E"/>
<path transform="translate(1888,708)" d="m0 0 9 2 17 7 16 10 10 8 10 9 11 14 8 13 7 15 5 17 2 11 1 13v388l-1 18-3 15-6 18-8 16-9 13-9 10-10 10-13 9-10 6-17 7-14 4-11 2v1h-419v-1l-15-3-15-5-16-8-14-9-11-10-5-5-8-9-10-15-8-17-3-9v-5l2-1h68l88 1h200l54-1 22-2 22-6 12-5 14-8 11-8 13-13 11-14 9-15 5-11 5-18 2-27v-411z" fill="#5D86C8"/>
<path transform="translate(1247,708)" d="m0 0 7 1 15 6 14 7 14 10 13 12 11 14 8 13 7 15 5 17 2 11h1v418h-1l-3 17-6 17-8 16-9 13-9 10-5 5-9 8-14 9-16 8-20 6-11 2v1l-194 1-226-1-4-2-14-3-20-8-17-10-11-9-6-5-7-8-11-15-8-15-6-16v-5l5-1 41 1 125 1h109l122-1 20-1 16-2 24-8 10-5 12-7 12-10h2l2-4 8-8 9-13 9-16 7-17 3-13 2-25v-164l1-87v-100l-1-43z" fill="#FDD16A"/>
<path transform="translate(608,1348)" d="m0 0 9 2 17 7 18 11 10 9 8 7 11 14 8 13 7 15 5 17 2 15 1 2v410h-2v9l-4 16-5 13-8 16-12 16-15 15-13 9-10 6-20 8-17 4-7 1-19 1h-376l-21-1-20-4-16-6-15-8-11-8-10-9-10-10-12-17-9-19-4-12v-3h400l20-1 18-2 16-4 13-5 16-9 11-8h2l1-3 7-6 10-13 7-10 8-16 4-11 3-13 3-30 1-33v-323l-1-49z" fill="#76BF43"/>
<path transform="translate(1887,1348)" d="m0 0 7 1 16 6 16 9 13 10 11 10 11 14 8 13 7 15 5 17 2 11 1 13v388l-1 18-4 19-7 19-9 16-10 13-15 15-13 9-10 6-20 8-17 4-7 1-19 1h-376l-21-1-20-4-16-6-15-8-11-8-10-9-5-5-9-10-10-16-7-15-3-9v-5l1-1 45 1h371l18-2 17-4 13-6 14-7 15-11 3-3h2l2-4h2l2-4 9-11 8-13 7-14 4-10 3-12 2-17 1-31v-339l-1-35z" fill="#EDAB47"/>
<path transform="translate(1247,1348)" d="m0 0 7 1 16 6 16 9 12 9 12 11 11 14 8 13 7 15 5 17 1 18 1 1 1 297v108l-1-4h-2v22l-7 21-8 16-9 13-9 10-10 10-13 9-10 6-20 8-17 4-7 1-19 1h-376l-21-1-20-4-16-6-15-8-11-8-10-9-5-5-9-10-10-16-7-15-4-12 1-3h14l38 1h159l211-1 20-3 13-4 9-4 12-6h3v-2l11-7 7-6h2l2-4h2l2-4h2l2-4 7-10 6-10 6-11 6-17 3-16 1-11 1-24v-358z" fill="#DE686E"/>
<path transform="translate(1065,397)" d="m0 0 5 1 10 21 5 17 3 20v13l-2 19-5 19-8 18-9 14-8 10-14 15-93 93h-2l-2 4h-2l-2 4h-2l-2 4-27 27-7 6-1 3-6 4-119 119-8 7-14 10-17 9-24 8-9 2h-17l-17-2-18-4-18-6-17-9-12-9-7-6v-2l-4-2-111-111-7-6-3-2-3-5-149-149-11-14-9-15-6-14-5-17-2-12-1-18 2-18 4-17 7-17 5-9 3 1 4 9 6 9 7 9 6 5 7 8 5 4 7 8 5 4 6 7 6 5 6 7 2 1v2h2v2h2v2h2v2h2l7 8 5 4v2h2v2h2v2h2v2h2l6 7 6 5 4 4v2h2v2h2l4 4v2h2v2l4 2v2h2v2h2v2h2v2h2v2h2v2h2v2h2v2h2v2h2v2h2v2h2v2h2v2h2v2h2v2h2v2l4 2 8 8v2l4 2v2l4 2v2l4 2v2l4 2v2l4 2v2l4 2 5 6 7 6 4 4v2l4 2 57 57v2l3 1 7 8 15 14 14 11 10 6 18 8 16 5 20 3h13l13-1 25-7 12-5 17-10 16-13 10-9 132-132 5-6 5-5 3-1 2-4h2l2-4h2l1-3 6-5 6-7 7-6 4-5 8-7 14-14h2l2-4 4-4h2l2-4h2l2-4 14-14 7-8 5-2 2-4 7-6 14-14 9-12 3-5 2-1 1-9z" fill="#76C043"/>
<path transform="translate(608,838)" d="m0 0 6 1 13 8 16 7 17 5 16 3 28 2v368h-1l-3 17-6 17-8 16-9 13-9 10-5 5-9 8-14 9-16 8-20 6-11 2 4 2-424-1v-1l-18-4-20-8-17-10-11-9-13-13-11-15-9-17-5-14v-5l2-1h43l83 1h207l81-1 20-2 18-5 16-7 13-8 12-9 13-13 10-14 6-9 7-15 4-14 3-23 1-55z" fill="#5D86C9"/>
<path transform="translate(1622,1504)" d="m0 0h82l19 4 13 5 13 7 10 8 10 10 9 12 9 19 4 14 1 6v20l-3 16-6 16-8 14-6 7 1 6 7 9 8 16 5 14 2 10v20l-4 20-7 16-7 11-7 9-8 8-11 8h-3v2l-17 8-15 4-9 1h-78l-15-2-16-5-14-7-11-8-14-14-8-13v-3h-2l-3-7-5-14-2-11v-23l4-17 7-16 8-13 4-6-1-4-7-9-6-11-6-16-3-13v-24l4-17 7-16 7-11 11-13 7-6 13-9 15-7 15-4z" fill="#696769"/>
<path transform="translate(298,1503)" d="m0 0h143l41 1 12 3 6 4 8 9 3 8 1 7v65h-57l-7-1v-31h-128v64l38-1h112l14 1 10 3 6 4 7 8 4 9 1 32v108l-3 10-7 9-9 6-5 2h-202l-10-2-6-3-7-6-5-8-2-9v-263l2-9 4-6 7-7 9-5 4-1z" fill="#676768"/>
<path transform="translate(1570,864)" d="m0 0h218l3 1v63h-191v64h161l11 2 9 6 7 8 3 6 1 7v124l-1 15-6 12-9 8-7 3-5 1h-219l-8-1-1-1v-27l1-35h191v-64h-159l-12-2-8-4-7-6-4-8-1-5-1-15v-109l1-22 6-9 7-7 9-4z" fill="#676768"/>
<path transform="translate(1555,224)" d="m0 0h208l8 2 10 6 7 9 3 6 1 16v113l-1 13-4 11-8 9-10 5-5 1-33 1h-131v63l140 1h48l4 2v36l-1 25-91 1h-103l-37-1-12-6-8-9-3-8-1-13v-105l1-26 6-12 8-7 8-4 8-1h161v-64h-130l-62-1 1-62z" fill="#676768"/>
<path transform="translate(290,864)" d="m0 0h127l18 2 15 4 19 10 9 7 13 13 7 10 8 16 4 14 2 11v17l-3 16-6 16-7 13-7 9 1 5 8 11 8 16 5 18 1 7v16l-3 17-6 16-6 11-8 11-13 13-14 9-17 8-19 4h-128l-9-1-1-3v-18l1-42 132-1 10-3 8-6 6-10 2-7v-11l-4-10-5-7-9-6-6-2-73-1-9-2-11-7-7-9-3-8v-12l3-9 7-9 7-5 10-3 74-1 10-3 8-6 6-10 2-7v-11l-4-10-5-7-9-6-7-2-130-1-4-1v-32l1-30z" fill="#676768"/>
<path transform="translate(929,858)" d="m0 0 10 1 49 10 3 1-1 11-7 33-13 65-3 13h89v-127l1-1h62l1 1 1 127h63v64h-64v127l-1 1h-62l-1-1v-127h-131l-9-2-9-6-7-8-4-10v-11l32-160z" fill="#696769"/>
<path transform="translate(936,1504)" d="m0 0h186l9 2 8 5 7 7 5 10 1 9-5 26-13 57-36 162-7 31-4 16-5 1-43-10-13-4-1-3 12-51 20-90 22-98 2-6h-109l12 34 5 17-1 3-34 12-22 7-3-1-16-47-14-41-3-12v-9l3-8 6-9 9-7 5-2z" fill="#676768"/>
<path transform="translate(614,320)" d="m0 0h12l10 4 6 4 10 9 176 176 7 8 10 9-1 5-41 41-4-1-177-177-4 2-9 9-1 2-1 76h-58l-5-2v-97l4-9 11-12 35-35 12-9z" fill="#676768"/>
<path transform="translate(320,1695)" d="m0 0h100l28 1v63l-1 1h-127l-1-8v-49z" fill="#89E04D"/>
<path transform="translate(1627,1696)" d="m0 0h73l10 3 10 7 6 10 2 7v13l-7 13-7 6-9 4-5 1h-76l-11-5v-2l-4-2-6-8-3-9v-12l4-11 9-9 8-5z" fill="#FCD06A"/>
<path transform="translate(1627,1568)" d="m0 0h73l10 3 8 5 6 8 3 7 1 4v13l-6 11-5 6-12 6-4 1h-75l-9-3-4-2v-2l-4-1-7-11-2-6v-13l3-9 10-11 8-5z" fill="#FCD06A"/>
<path transform="translate(614,320)" d="m0 0h12l10 4 6 4 10 9 145 145v4l3 1 4 4v3l4 1 1 5h-2v-2h-2v-2l-4-2-6-5v-2h-2v-2h-2v-2h-2v-2h-2v-2l-4-2v-2l-4-2v-2l-4-2v-2l-4-2v-2l-4-2v-2l-4-2v-2l-4-2v-2l-4-2-80-80v-2l-4-2v-2l-4-2v-2h-2v-2h-2v-2h-2l-7-8-5-6-6-5v-2h-2v-2l-4-1-4-2v-2l-4-1-2-2-12-1-7 3-10 6-2-1 7-6 7-4z" fill="#616065"/>
<path transform="translate(1147,1552)" d="m0 0h1l-1 11-13 57-36 162-7 31-3-1v-5l2-3v-14l3-8 2-14 2-3 1-13 2-7 2-10 2-5 2-14 2-7 5-25 6-25 2-13 4-16 2-6 2-12 3-11 2-11 3-4v-6h2l4-16 3-9z" fill="#606065"/>
<path transform="translate(318,1567)" d="m0 0 2 2v63l38-1h112l14 1 10 3 6 4 7 8 4 9v9l-2 4-1-1v-12h-2l-3-3-1-5h-3v-3l-6-2-1-2-2 1v-2l-8-1-7-2h-6v-2l-8 2-9-1h-10l-4-1-5 2v-2l-8 1-9-1v2l-9-1-3 1-1-1h-6-4-27l-4 1-5-2v2h-6l-2-2-1 2-1-1-4 1-7 1h-3l-3-1h-8l-5-4-3-15v-7l1-7 1-35z" fill="#605F65"/>
<path transform="translate(1622,1504)" d="m0 0h82l19 4 13 5 13 7 10 8 10 10 9 12 6 12v5l-5-5-2-6-3-2v-3h-2l-7-9-4-5-2-1v-3l-4-2-5-5-4-1-3-2v-2l-3-1v-2l-5-2-1-2-9-2-4-1-3-1v-2h-15l-8 1-25 1h-10l-4-1h-37l-4 2-5-2-4 2-9 2-9 4-3 3-9 5-2 3h-2l-2 4-9 9-6 9-1 2h-2l-2 6-3 5-4 2 2-6 6-11 13-16 5-4 3-3 13-9 15-7 15-4z" fill="#676066"/>
<path transform="translate(1081,1567)" d="m0 0 2 1-2 8h2v4l-2 2-1 13-3 8-1 9-3 9-1 10-3 8-2 13-2 5-1 10-3 8-1 10-3 8-1 10-3 8-1 11-3 7-1 10-3 8-2 13-2 5-1 10-3 8-3 12-2 2-2 5h-1l1-10 13-57 22-99 14-62z" fill="#605F65"/>
<path transform="translate(1122,992)" d="m0 0h62v42l-1 21h-55v-1l8-2 16-1 5-1 13-1 5-1v-6l2-3v-9l1-3v-23l-2-2-1-4-8-1-20 1h-17l-8-1-1-3-2-1z" fill="#6B6065"/>
<path transform="translate(1117,1067)" d="m0 0 2 1v116h-62l-1-1 1-44 2 1v11l1 18 2 5v3h2v4h5l7-3h16l5 1 5-1 5 2v-2l7-1 1-7v-89l1-12z" fill="#666065"/>
<path transform="translate(1341,1448)" d="m0 0h1l1 6 2 4v402h-1l-1-101-1-297-1-1z" fill="#EEAC47"/>
<path transform="translate(703,864)" d="m0 0h1v368h-1l-1 7h-1v-16l1-4-2-207 2-114v-30z" fill="#79A1D5"/>
<path transform="translate(1057,864)" d="m0 0h62v128l-2-4-2-26v-58l1-10v-16l-1-6-5-4h-44l-5 1v2h-2l-1 7h-1l-1-13z" fill="#695F65"/>
<path transform="translate(353,1759)" d="m0 0h79l17 1-1 3-1-2h-2l-1 2v-2l-3 2h-11l-11 1-5 1-1-1h-5l-4 1-7-1-4 1-6-2v2l-8-1-3 1-10-1-4 1h-2v-2l-4 2-6-1-2 1v-2l-6 2h-20l-2-1-1-4z" fill="#616065"/>
<path transform="translate(1780,400)" d="m0 0h5l-2 5-7 6-7 3-5 1h-152l1-2 25-1h77l2-1 4 1 13-1h20l3-1v2l8-1 3 1 2-4 6-4 2 1z" fill="#605F65"/>
<path transform="translate(168,1341)" d="m0 0h15l1 1 398 1v1h-409v-1l-5-1z" fill="#79A1D5"/>
<path transform="translate(1724,540)" d="m0 0h11l15 1-3 2-47 1h-103l-10-1v-1l7-1z" fill="#616165"/>
<path transform="translate(1572,283)" d="m0 0 5 1 8-1 34 1h74l22 1 2 2h-158v-2z" fill="#605F65"/>
<path transform="translate(1012,1050)" d="m0 0h6l4 1 4-1 19 3 2 2h-124v-1l22-1 7-1h33l10-1h15l2 1z" fill="#605F65"/>
<path transform="translate(1341,1448)" d="m0 0h1l1 6h1v305h-1l-1-297-1-1z" fill="#F29C98"/>
<path transform="translate(1718,1507)" d="m0 0 11 3 17 8 12 9 11 11 9 12 6 12v5l-5-5-2-6-3-2v-3h-2l-7-9-4-5-2-1v-3l-4-2-5-5-4-1-3-2v-2l-3-1v-2l-5-2-1-2-9-2-4-1-3-1z" fill="#615F65"/>
<path transform="translate(338,1504)" d="m0 0h144l12 3 6 4 8 9 2 4v8l-2-2-3-6-1-6-5-4-6-1-2-2-6-1-16-4-131-1z" fill="#605F65"/>
<path transform="translate(510,1562)" d="m0 0h1l1 38h-57l-7-1 1-7 3 4h41l9 1 3-1-1-2 3-6 2-15z" fill="#626266"/>
<path transform="translate(971,1573)" d="m0 0 4 3 13 38 1 7-10 4h-5l4-2 2-7-1-8-5-15-3-11z" fill="#605F65"/>
<path transform="translate(545,382)" d="m0 0 1 3-1 3v97l4 1 57 1v1h-63l-2-6v-42l1-49z" fill="#76C043"/>
<path transform="translate(996,1564)" d="m0 0h65l18 1 1 2h-103l3-2z" fill="#605F65"/>
<path transform="translate(318,1695)" d="m0 0h1l1 23v34l-1 7-2 1-2-3v-6l-1-5v-7l1-2v-22l1-18z" fill="#605F65"/>
<path transform="translate(966,993)" d="m0 0h88l-2 2-4 1h-7l-5-1-14 1h-5l-2 1-5-1-4 1-26-1-9-1-5-1z" fill="#605F65"/>
<path transform="translate(1694,1632)" d="m0 0h10l-3 1v2l-14 1h-46l-14-2v-1z" fill="#605F65"/>
<path transform="translate(1694,1760)" d="m0 0h9l-3 3-19 1h-39l-14-2v-1z" fill="#605F65"/>
<path transform="translate(1652,1692)" d="m0 0h40l7 2v1l-25 1h-16l-29-1 3-2h18z" fill="#605F65"/>
<path transform="translate(1652,1564)" d="m0 0h41l5 2v1h-70l4-2z" fill="#605F65"/>
<path transform="translate(1774,1779)" d="m0 0 3 1-6 8-7 8-10 9-6 4h-2l1-5 8-8 5-3h2v-2h2v-2h2l2-4z" fill="#716166"/>
<path transform="translate(918,909)" d="m0 0h1l1 13-1 3h-2l2 5-2 4h-2v11h-2l2 5-2 4h-2v9l-3 5h-1l1-9z" fill="#746166"/>
<path transform="translate(975,942)" d="m0 0h2l-2 12-6 28-1 2-3-1-1-7 1-4 3-3v-8l2-1-1-2 3-7 2-8z" fill="#6A6066"/>
<path transform="translate(1057,1139)" d="m0 0 2 1v11l1 18 2 5v3h2v4l5 1v1h-13z" fill="#605F65"/>
<path transform="translate(916,1597)" d="m0 0 3 4 5 14 3 9 1 8 8 2 4 3-5 3-5 1-5-12-9-27z" fill="#626266"/>
<path transform="translate(1140,1513)" d="m0 0 6 5 5 10 1 9-2 12-2 2v-7l1-5-2-4-1-7-3-3-3-7-2-4z" fill="#616065"/>
<path transform="translate(1767,226)" d="m0 0 6 1 9 6 6 8 2 4v8l-3-3-1-5-3-1-3-6-10-8z" fill="#606065"/>
<path transform="translate(827,512)" d="m0 0h2l6 7 2 1v2l4 2 6 6v5l-10 9-24 24-2-1 33-33-1-5-8-7-7-7z" fill="#76C043"/>
<path transform="translate(449,1592)" d="m0 0 3 4h41l8 1 1 2h-54z" fill="#605F65"/>
<path transform="translate(1449,1341)" d="m0 0h14l1 1 86 1v1h-96v-1l-5-1z" fill="#79A1D5"/>
<path transform="translate(897,1540)" d="m0 0 2 1 3 12 3 9 7 18 3 10 1 1v5h-2l-15-44-2-8z" fill="#626166"/>
<path transform="translate(1790,901)" d="m0 0h1v26h-22v-1l12-2h6l1-5 1-14z" fill="#605F65"/>
<path transform="translate(1786,480)" d="m0 0 5 1v7l-4 1v-2l-9-2-5-2-6-1v-1z" fill="#605F65"/>
<path transform="translate(614,320)" d="m0 0h12l4 2-5 2-10-1-7 3-10 6-2-1 7-6 7-4z" fill="#626266"/>
<path transform="translate(500,1811)" d="m0 0h4l-2 4-9 6h-7l6-7z" fill="#606065"/>
<path transform="translate(1538,274)" d="m0 0 4 4 4 6 2 2-1 1h-10v-10z" fill="#605F65"/>
<path transform="translate(605,455)" d="m0 0h1l1 31h-6v-5l2-6h2l-1-5z" fill="#605F65"/>
<path transform="translate(1603,1508)" d="m0 0h4l-1 3-9 2-9 4-3 3-7 4h-2v-2l11-7 13-6z" fill="#646065"/>
<path transform="translate(448,1705)" d="m0 0h1l1 10v40l1 3-3 1z" fill="#605F65"/>
<path transform="translate(928,1632)" d="m0 0 8 2 4 3-5 3-5 1-2-4z" fill="#616065"/>
<path transform="translate(677,64)" d="m0 0h23l4 2-5 1h-27l1-2z" fill="#76BE4A"/>
<path transform="translate(800,567)" d="m0 0 7 1-1 5-3 3-4-1-2-5h2z" fill="#616065"/>
<path transform="translate(1449,701)" d="m0 0h15v2h12v1h-23z" fill="#F29C98"/>
<path transform="translate(1538,226)" d="m0 0h7v3l-5 4-1 7h-1z" fill="#605F65"/>
<path transform="translate(1554,1675)" d="m0 0 1 2-8 14h-2l1-5 5-9z" fill="#605F65"/>
<path transform="translate(918,909)" d="m0 0h1l1 13-1 3h-2l-1 3-1-4z" fill="#7B6267"/>
<path transform="translate(922,889)" d="m0 0h1l1 13-1 3h-2l-1 3-1-4z" fill="#7B6267"/>
<path transform="translate(1776,865)" d="m0 0h15v5l-3 1-2-3-10-2z" fill="#605F65"/>
<path transform="translate(1776,998)" d="m0 0 4 1 8 9-1 3-4-4v-2h-2l-2-5-3-1z" fill="#626166"/>
<path transform="translate(1085,1822)" d="m0 0h2v7l-5 1-1-3 2-4z" fill="#616065"/>
<path transform="translate(584,1341)" d="m0 0h14v1l-5 1 4 2-14-1z" fill="#79A1D5"/>
<path transform="translate(916,927)" d="m0 0 3 1-1 5-3 1-1 5h-1l1-10z" fill="#6F6166"/>
<path transform="translate(509,1796)" d="m0 0h1v7l-4 7-3-1 3-1 1-8z" fill="#616065"/>
<path transform="translate(926,879)" d="m0 0h1v6h-2l1 6-3 3v-10z" fill="#686065"/>
<path transform="translate(1940,96)" d="m0 0 5 3 5 5v2l-5-1-2-4-3-2z" fill="#F19A96"/>
<path transform="translate(1341,808)" d="m0 0h1l1 6h1v15h-1l-2-11z" fill="#FFE598"/>
<path transform="translate(1755,993)" d="m0 0h14v3l-11-1z" fill="#605F65"/>
<path transform="translate(905,973)" d="m0 0h2l-1 10-2 5h-1l1-10z" fill="#7B6367"/>
<path transform="translate(975,942)" d="m0 0h2l-2 12-2-3v-6z" fill="#806267"/>
<path transform="translate(809,1341)" d="m0 0h14l1 2-11 1z" fill="#FFE598"/>
<path transform="translate(929,858)" d="m0 0h3l-1 7-3 2v-8z" fill="#6F6166"/>
<path transform="translate(616,397)" d="m0 0h2l-1 4-5 5h-2l2-5 4-2z" fill="#626166"/>
<path transform="translate(1549,1555)" d="m0 0 1 3-3 5-4 2 2-6z" fill="#746167"/>
</svg>
