<?xml version="1.0" encoding="UTF-8"?>
<svg version="1.1" viewBox="0 0 2048 2048" width="512" height="512" xmlns="http://www.w3.org/2000/svg">
<path transform="translate(696)" d="m0 0h21l12 5 15 10 34 24 18 13 19 13 18 13 17 12 18 13 20 14 17 12 18 13 19 13 15 11 20 14 17 12 18 13 51 36 14 10 18 13 13 9 34 24 18 13 20 14 34 24 18 13 17 12 20 14 18 13 19 13 15 11 34 24 18 13 16 11 12 9 7 7 4 8v13l-5 10-7 7-9 3-225 1v281l12 3 10 6 7 8 4 8 1 4 1 44-1 16 7-4 18-13 20-14 18-13 20-14 18-13 16-11 12-5 5-1h14l12 3 11 6 34 24 18 13 19 13 15 11 20 14 17 12 18 13 51 36 14 10 18 13 13 9 34 24 18 13 20 14 34 24 18 13 20 14 17 12 18 13 19 13 15 11 51 36 14 10 18 13 20 14 17 12 18 13 19 13 15 11 20 14 18 13 11 9 6 10v14l-5 9-9 8-6 2-7 1h-220v282l12 2 9 5 8 8 4 8 2 8v110h29l18 1 15 4 13 7 12 10 9 12 7 15 3 15v77h14l31 1 16 4 12 6 10 8 8 8 8 13 6 15 1 4v56l-5 10-9 10-9 5-6 2h-1356l-15-8-7-8-4-8-2-12v-36l2-16 5-14 7-11 11-12 10-7 10-5 15-4 45-1 1-74 2-13 4-12 7-12 11-12 10-8 13-6 11-3 11-1h25l12 1v-110l2-9 6-10 9-8 10-4 8-2v-280l-18-1h-203l-9-2-8-5-6-8-2-5v-14l4-8 4-5 14-10 34-24 18-13 16-11-50-1-650-1-12-6-8-8-6-11v-59l6-15 4-8 7-9 6-7 13-9 11-5 12-3h46l1-82 3-12 8-16 9-11 9-8 14-8 14-4 8-1h40l1-113 4-10 7-9 11-7 12-3 1-281-227-1-10-5-7-8-3-5v-16l6-9 9-8 20-14 18-13 20-14 17-12 18-13 20-14 18-13 19-13 15-11 20-14 18-13 20-14 17-12 18-13 19-13 15-11 20-14 18-13 17-12 20-14 17-12 18-13 20-14 18-13 20-14 18-13 19-13 18-13 34-24 18-13 20-14 17-12 18-13 34-24 14-9zm-307 529-1 4v278l4 2 9 2 10 6 7 8 4 10 1 19v95l62 1h113l2-1 1-111 3-9 4-7 9-8 9-4 9-2v-282l-13-1zm389 0-1 1-1 272 1 10 15 4 8 6 7 8 3 8 1 5 1 110 63 1h110l3-1 1-101 1-13 4-10 8-9 9-5 12-3 1-1v-281l-2-1zm275 812-29 1v282l15 4 8 6 7 8 4 10 1 113 1 1h175l1-1 1-113 4-10 5-7 8-6 16-5 1-1v-281l-24-1zm379 0-20 1v282l15 4 9 6 7 9 3 8 1 19v95l1 1h176l1-112 4-11 6-8 8-6 8-3 8-2v-282l-30-1z" fill="#FFC105"/>
<path transform="translate(696)" d="m0 0h21l12 5 15 10 34 24 18 13 19 13 18 13 17 12 18 13 20 14 17 12 18 13 19 13 15 11 20 14 17 12 18 13 51 36 14 10 18 13 13 9 34 24 18 13 20 14 34 24 18 13 17 12 20 14 18 13 19 13 15 11 34 24 18 13 16 11 12 9 7 7 4 8v13l-5 10-7 7-9 3-225 1v281l12 3 10 6 7 8 4 8 1 4 1 44-1 16-5 5-19 14-13 9-17 12-16 11-34 24-18 13-13 9-17 12-14 10-18 13-34 24-14 10-30 21-36 26-14 10-51 36-14 10-17 12-20 14-18 13-17 12-15 10-9 5-6 1-695-1-12-6-8-8-6-11v-59l6-15 4-8 7-9 6-7 13-9 11-5 12-3h46l1-82 3-12 8-16 9-11 9-8 14-8 14-4 8-1h40l1-113 4-10 7-9 11-7 12-3 1-281-227-1-10-5-7-8-3-5v-16l6-9 9-8 20-14 18-13 20-14 17-12 18-13 20-14 18-13 19-13 15-11 20-14 18-13 20-14 17-12 18-13 19-13 15-11 20-14 18-13 17-12 20-14 17-12 18-13 20-14 18-13 20-14 18-13 19-13 18-13 34-24 18-13 20-14 17-12 18-13 34-24 14-9zm-307 529-1 4v278l4 2 9 2 10 6 7 8 4 10 1 19v95l62 1h113l2-1 1-111 3-9 4-7 9-8 9-4 9-2v-282l-13-1zm389 0-1 1-1 272 1 10 15 4 8 6 7 8 3 8 1 5 1 110 63 1h110l3-1 1-101 1-13 4-10 8-9 9-5 12-3 1-1v-281l-2-1z" fill="#347094"/>
<path transform="translate(1334,812)" d="m0 0h14l12 3 11 6 34 24 18 13 19 13 15 11 20 14 17 12 18 13 51 36 14 10 18 13 13 9 34 24 18 13 20 14 34 24 18 13 20 14 17 12 18 13 19 13 15 11 51 36 14 10 18 13 20 14 17 12 18 13 19 13 15 11 20 14 18 13 11 9 6 10v14l-5 9-9 8-6 2-7 1h-195l-25 1-5 1-81-1h-55l-31-1h-197l-20 1h-141l-24-1h-194l-29 1h-142l-18-1h-203l-9-2-8-5-6-8-2-5v-14l4-8 4-5 14-10 34-24 18-13 16-11-5-1v-1l8-2 15-9 18-13 19-13 9-7 16-11 17-12 18-13 19-13 15-11 34-24 19-14 13-9 17-12 10-7 18-13 34-24 18-13 17-12 10-7 17-12 18-13 19-13 11-8 13-9 20-14 14-10 18-13 4-2v-2l5-2 18-13 19-13 15-11 34-24 18-13 11-7 10-4z" fill="#FAAE03"/>
<path transform="translate(242,812)" d="m0 0h150l9 2 10 6 8 9 4 10 1 19v94l61 1h115v-111l3-9 4-7 7-7 12-6 5-1h150l13 4 10 9 6 9 2 9v110h176v-101l1-13 4-10 9-10 9-5 8-2h151l10 3 9 6 6 7 4 8 1 4 1 44-1 16-5 5-19 14-13 9-17 12-16 11-34 24-18 13-13 9-17 12-14 10-18 13-34 24-14 10-30 21-36 26-14 10-51 36-14 10-17 12-20 14-18 13-17 12-15 10-9 5-6 1-695-1-12-6-8-8-6-11v-59l6-15 4-8 7-9 6-7 13-9 11-5 12-3h46l1-82 3-12 8-16 9-11 9-8 14-8 14-4 8-1h40l1-113 4-10 7-9 11-7z" fill="#347094"/>
<path transform="translate(759,1904)" d="m0 0 31 2h50l46-1h62l67 1h662l93-1h103l19-1h28l5 1 10-1 6 1v2l10-1 36 1 16 4 12 6 10 8 8 8 8 13 6 15 1 4v56l-5 10-9 10-9 5-6 2h-1356l-15-8-7-8-4-8-2-12v-36l2-16 5-14 7-11 11-12 10-7 10-5 15-4 47-1z" fill="#FBAE03"/>
<path transform="translate(107,1094)" d="m0 0h769l45 1 3-1v3l-19 14-68 48-14 10-17 12-20 14-18 13-17 12-15 10-9 5-6 1-695-1-12-6-8-8-6-11v-59l6-15 4-8 7-9 6-7 13-9 11-5 12-3z" fill="#285574"/>
<path transform="translate(101,1377)" d="m0 0h9l9 2 11 7 7 9 3 7 1 5 1 225 2 18 5 19 6 15 8 15 10 14 12 13 13 11 18 11 17 8 21 6 12 2 14 1h161l2 1-7-8-36-36-9-13-2-6v-15l4-10 6-8 9-7 10-3h12l10 3 9 7 108 108 6 10 2 8v8l-3 11-7 11-106 106-10 7-9 3h-15l-10-4-10-9-6-12-1-3v-13l4-11 7-9 43-43 1-2h-167l-24-2-25-5-24-8-25-12-17-11-13-10-11-10-8-7-7-8-12-15-12-19-8-16-7-16-6-20-4-19-2-16-1-16v-216l3-12 7-10 7-6 8-4z" fill="#49505A"/>
<path transform="translate(1378,176)" d="m0 0h175l54 1 22 3 21 5 20 7 19 9 18 11 12 9 11 9 19 19 11 14 10 15 10 18 8 19 7 23 4 22 2 28v159h3l7-8 36-36 10-6 10-3h8l11 3 9 6 7 8 4 10 1 4v9l-4 12-7 9-8 9-5 5h-2l-1 3-6 5-5 6-8 7-73 73-8 5-10 3h-9l-10-3-9-6-110-110-5-8-2-6-1-10 3-12 6-9 9-8 10-4h15l10 4 8 6 9 8v2h2l6 7 6 5v2h2v2l4 2 15 15v-170l-2-16-5-19-6-15-8-15-8-11-11-13-11-10-16-11-17-9-21-7-15-3-9-1-228-1-10-3-9-6-6-7-5-11v-16l5-12 6-7 10-6 5-2z" fill="#49505A"/>
<path transform="translate(653,529)" d="m0 0h99l25 1v282h-142v-282z" fill="#CDD1D9"/>
<path transform="translate(902,1342)" d="m0 0h48l74 1v281h-109l-32-1-1-2v-275l1-3z" fill="#CDD1D9"/>
<path transform="translate(1659,1342)" d="m0 0h56l86 1v281h-102l-40-1z" fill="#CDD1D9"/>
<path transform="translate(266,529)" d="m0 0h101l21 1 1 3v279l-140 1-3-2 1-281z" fill="#CDD1D9"/>
<path transform="translate(1046,529)" d="m0 0h101l18 1 1 282-132 1-11-1 1-281 1-1z" fill="#CCD0D8"/>
<path transform="translate(1290,1342)" d="m0 0h49l74 1-1 280-5 1h-98l-38-1v-280z" fill="#CDD1D9"/>
<path transform="translate(1659,1623)" d="m0 0h141l16 4 8 6 7 8 4 9 1 5v96l-1 14-7 3h-17l-19-1-49-1h-110l-8-1-1-2v-109l4-11 6-8 7-6 10-4z" fill="#FAAE03"/>
<path transform="translate(1270,1623)" d="m0 0h142l15 4 9 6 7 8 4 10 1 19v94l-7 2-12 1h-30l-31-1h-95l-37-1v-113l4-10 6-8 8-6z" fill="#FAAE03"/>
<path transform="translate(882,1623)" d="m0 0h141l16 4 8 6 8 9 4 10v112l-11 3-20 1-21-1-43-1-112-1-4-1v-114l5-10 8-9 9-5z" fill="#FBAE03"/>
<path transform="translate(631,812)" d="m0 0h150l13 4 10 9 6 9 2 9v109l-1 1h-211v-111l3-9 4-7 7-7 12-6z" fill="#285574"/>
<path transform="translate(242,812)" d="m0 0h150l9 2 10 6 8 9 4 10 1 19v94l-2 1h-206l-4-1v-112l4-10 7-9 11-7z" fill="#285574"/>
<path transform="translate(1019,812)" d="m0 0h151l10 3 9 6 6 7 4 8 1 4 1 44-1 16-5 5-19 14-13 9-17 12-16 11-8 6-5-2-3-1h-48l-77-1v-114l4-10 9-10 9-5z" fill="#285574"/>
<path transform="translate(1501,1336)" d="m0 0h51l83 1 12 2 2 1 10 1v1h-247v-1l18-1 8-2 18-1z" fill="#FFC105"/>
<path transform="translate(1115,1336)" d="m0 0h45l75 1 20 1 6 2 10 1v1h-247v-1l17-1 7-2 20-1z" fill="#FFC105"/>
<path transform="translate(882,1623)" d="m0 0h141l4 2-10 1h-143l4-2z" fill="#FFC105"/>
<path transform="translate(1270,1623)" d="m0 0h142l3 2-17 1h-129l-2 1-5-1v-1z" fill="#FEC105"/>
<path transform="translate(1659,1623)" d="m0 0h141l4 2-10 1h-137l-2 1-4-2z" fill="#FFC105"/>
<path transform="translate(1669,1341)" d="m0 0h157v1l-25 1-5 1-81-1h-44z" fill="#FFC105"/>
<path transform="translate(600,842)" d="m0 0h2l2 15v65l1 3-1 9 1 2-3 3h-1z" fill="#357094"/>
<path transform="translate(1443,1643)" d="m0 0 2 2 2 6 1 19v23h-1l-1-13-2-3-2-29z" fill="#F6C327"/>
<path transform="translate(1055,1644)" d="m0 0 2 2 2 6v28h-2l-1-2-1-22-1-7z" fill="#FFC105"/>
<path transform="translate(1659,1623)" d="m0 0h40l2 2-9 1h-35l-2 1-4-2z" fill="#FEC004"/>
<path transform="translate(2e3 1266)" d="m0 0 11 7 1 2-7 1-5-6z" fill="#FFC105"/>
<path transform="translate(639,2026)" d="m0 0 4 1 1 5 3 1v5l-5-5-3-5z" fill="#FFC105"/>
<path transform="translate(2010,1275)" d="m0 0 4 2 5 4-1 2h-4l-4-6z" fill="#FFC105"/>
<path transform="translate(1970,1246)" d="m0 0 9 6-4 2-5-5z" fill="#FFC105"/>
<path transform="translate(2033,1336)" d="m0 0 4 1-9 4h-3v-2z" fill="#FFC105"/>
</svg>
